<svg xmlns="http://www.w3.org/2000/svg" width="25.216" height="16.977" viewBox="0 0 25.216 16.977">
  <g id="Groupe_76" data-name="Groupe 76" transform="translate(-561.142 -497.822)">
    <g id="Groupe_19" data-name="Groupe 19" transform="translate(16 1)">
      <path id="Tracé_20" data-name="Tracé 20" d="M15.179,252.985c-.025-.386-.074-.808-.148-1.253a10.587,10.587,0,0,0-.283-1.26,6.509,6.509,0,0,0-.476-1.175,4.411,4.411,0,0,0-.718-1.018,3.143,3.143,0,0,0-1.032-.7,3.314,3.314,0,0,0-1.317-.259,1.28,1.28,0,0,0-.714.329c-.214.152-.464.327-.744.521a4.1,4.1,0,0,1-.962.461,3.453,3.453,0,0,1-2.354,0,4.088,4.088,0,0,1-.962-.461c-.277-.192-.527-.368-.744-.522a1.278,1.278,0,0,0-.714-.329,3.31,3.31,0,0,0-1.317.259,3.141,3.141,0,0,0-1.032.7A4.41,4.41,0,0,0,.944,249.3a6.522,6.522,0,0,0-.476,1.175,10.614,10.614,0,0,0-.283,1.259c-.073.444-.123.866-.148,1.253S0,253.758,0,254.156a3.448,3.448,0,0,0,.9,2.491,3.092,3.092,0,0,0,2.318.919H12a3.091,3.091,0,0,0,2.318-.919,3.447,3.447,0,0,0,.9-2.491c0-.4-.013-.794-.037-1.171Zm0,0" transform="translate(555.142 256.233)" fill="#fff"/>
      <path id="Tracé_8" data-name="Tracé 8" d="M90.929,7.795a3.771,3.771,0,0,0,2.756-1.142A3.771,3.771,0,0,0,94.826,3.9a3.771,3.771,0,0,0-1.142-2.756,3.9,3.9,0,0,0-5.511,0A3.771,3.771,0,0,0,87.032,3.9a3.771,3.771,0,0,0,1.142,2.756A3.772,3.772,0,0,0,90.929,7.795Zm0,0" transform="translate(471.719 496.822)" fill="#9c9c9c"/>
      <path id="Tracé_9" data-name="Tracé 9" d="M13.467,251.943a9.627,9.627,0,0,0-.131-1.022,8.056,8.056,0,0,0-.251-1.028,5.077,5.077,0,0,0-.423-.959,3.618,3.618,0,0,0-.637-.83,2.81,2.81,0,0,0-.915-.575,3.164,3.164,0,0,0-1.169-.211,1.186,1.186,0,0,0-.633.269c-.19.124-.412.267-.66.425a3.78,3.78,0,0,1-.854.376,3.315,3.315,0,0,1-2.089,0,3.772,3.772,0,0,1-.853-.376c-.246-.157-.468-.3-.66-.426a1.185,1.185,0,0,0-.633-.269,3.16,3.16,0,0,0-1.168.212,2.808,2.808,0,0,0-.916.575,3.618,3.618,0,0,0-.637.83,5.087,5.087,0,0,0-.423.959,8.074,8.074,0,0,0-.251,1.028,9.592,9.592,0,0,0-.131,1.023c-.021.31-.032.631-.032.956a2.687,2.687,0,0,0,.8,2.033,2.873,2.873,0,0,0,2.056.75h7.791a2.872,2.872,0,0,0,2.056-.75,2.686,2.686,0,0,0,.8-2.033c0-.326-.011-.648-.033-.956Zm0,0" transform="translate(556 257.322)" fill="#9c9c9c"/>
    </g>
    <g id="Groupe_20" data-name="Groupe 20" transform="translate(6 1)">
      <path id="Tracé_20-2" data-name="Tracé 20" d="M15.179,252.985c-.025-.386-.074-.808-.148-1.253a10.587,10.587,0,0,0-.283-1.26,6.509,6.509,0,0,0-.476-1.175,4.411,4.411,0,0,0-.718-1.018,3.143,3.143,0,0,0-1.032-.7,3.314,3.314,0,0,0-1.317-.259,1.28,1.28,0,0,0-.714.329c-.214.152-.464.327-.744.521a4.1,4.1,0,0,1-.962.461,3.453,3.453,0,0,1-2.354,0,4.088,4.088,0,0,1-.962-.461c-.277-.192-.527-.368-.744-.522a1.278,1.278,0,0,0-.714-.329,3.31,3.31,0,0,0-1.317.259,3.141,3.141,0,0,0-1.032.7A4.41,4.41,0,0,0,.944,249.3a6.522,6.522,0,0,0-.476,1.175,10.614,10.614,0,0,0-.283,1.259c-.073.444-.123.866-.148,1.253S0,253.758,0,254.156a3.448,3.448,0,0,0,.9,2.491,3.092,3.092,0,0,0,2.318.919H12a3.091,3.091,0,0,0,2.318-.919,3.447,3.447,0,0,0,.9-2.491c0-.4-.013-.794-.037-1.171Zm0,0" transform="translate(555.142 256.233)" fill="#fff"/>
      <path id="Tracé_8-2" data-name="Tracé 8" d="M90.929,7.795a3.771,3.771,0,0,0,2.756-1.142A3.771,3.771,0,0,0,94.826,3.9a3.771,3.771,0,0,0-1.142-2.756,3.9,3.9,0,0,0-5.511,0A3.771,3.771,0,0,0,87.032,3.9a3.771,3.771,0,0,0,1.142,2.756A3.772,3.772,0,0,0,90.929,7.795Zm0,0" transform="translate(471.719 496.822)" fill="#9c9c9c"/>
      <path id="Tracé_9-2" data-name="Tracé 9" d="M13.467,251.943a9.627,9.627,0,0,0-.131-1.022,8.056,8.056,0,0,0-.251-1.028,5.077,5.077,0,0,0-.423-.959,3.618,3.618,0,0,0-.637-.83,2.81,2.81,0,0,0-.915-.575,3.164,3.164,0,0,0-1.169-.211,1.186,1.186,0,0,0-.633.269c-.19.124-.412.267-.66.425a3.78,3.78,0,0,1-.854.376,3.315,3.315,0,0,1-2.089,0,3.772,3.772,0,0,1-.853-.376c-.246-.157-.468-.3-.66-.426a1.185,1.185,0,0,0-.633-.269,3.16,3.16,0,0,0-1.168.212,2.808,2.808,0,0,0-.916.575,3.618,3.618,0,0,0-.637.83,5.087,5.087,0,0,0-.423.959,8.074,8.074,0,0,0-.251,1.028,9.592,9.592,0,0,0-.131,1.023c-.021.31-.032.631-.032.956a2.687,2.687,0,0,0,.8,2.033,2.873,2.873,0,0,0,2.056.75h7.791a2.872,2.872,0,0,0,2.056-.75,2.686,2.686,0,0,0,.8-2.033c0-.326-.011-.648-.033-.956Zm0,0" transform="translate(556 257.322)" fill="#9c9c9c"/>
    </g>
  </g>
</svg>
