<svg xmlns="http://www.w3.org/2000/svg" width="13.992" height="13.259" viewBox="0 0 13.992 13.259">
  <g id="supermarket" transform="translate(0.25 0.25)">
    <path id="Tracé_1" data-name="Tracé 1" d="M126.111,313.946a1.286,1.286,0,1,0-1.286,1.286A1.286,1.286,0,0,0,126.111,313.946Zm-2.116,0a.83.83,0,1,1,.83.83A.83.83,0,0,1,123.995,313.946Zm0,0" transform="translate(-119.513 -302.473)" fill="#fff" stroke="#fff" stroke-width="0.5"/>
    <path id="Tracé_2" data-name="Tracé 2" d="M270.985,315.233a1.286,1.286,0,1,0-1.286-1.286A1.286,1.286,0,0,0,270.985,315.233Zm0-2.116a.83.83,0,1,1-.83.83A.83.83,0,0,1,270.985,313.117Zm0,0" transform="translate(-260.912 -302.473)" fill="#fff" stroke="#fff" stroke-width="0.5"/>
    <path id="Tracé_3" data-name="Tracé 3" d="M.227.456H1.619a.925.925,0,0,1,.918.784L3.638,8.2A1.379,1.379,0,0,0,5.006,9.366h6.807a.228.228,0,0,0,0-.456H5.006a.925.925,0,0,1-.918-.784L3.9,6.943h6.972a1.386,1.386,0,0,0,1.309-.932l1.293-3.733a.228.228,0,0,0-.215-.3H3.115l-.128-.806A1.379,1.379,0,0,0,1.619,0H.227a.228.228,0,1,0,0,.456ZM12.94,2.431l-1.188,3.43a.93.93,0,0,1-.878.625H3.829L3.187,2.431Zm0,0" transform="translate(0.001 0)" fill="#fff" stroke="#fff" stroke-width="0.5"/>
  </g>
</svg>
