<svg xmlns="http://www.w3.org/2000/svg" width="13.5" height="16.181" viewBox="0 0 13.5 16.181">
  <g id="user_1_" data-name="user (1)" transform="translate(0 0)">
    <path id="Tracé_8" data-name="Tracé 8" d="M90.929,7.795a3.771,3.771,0,0,0,2.756-1.142A3.771,3.771,0,0,0,94.826,3.9a3.771,3.771,0,0,0-1.142-2.756,3.9,3.9,0,0,0-5.511,0A3.771,3.771,0,0,0,87.032,3.9a3.771,3.771,0,0,0,1.142,2.756A3.772,3.772,0,0,0,90.929,7.795Zm0,0" transform="translate(-84.281)" fill="#f3493d"/>
    <path id="Tracé_9" data-name="Tracé 9" d="M13.467,251.943a9.627,9.627,0,0,0-.131-1.022,8.056,8.056,0,0,0-.251-1.028,5.077,5.077,0,0,0-.423-.959,3.618,3.618,0,0,0-.637-.83,2.81,2.81,0,0,0-.915-.575,3.164,3.164,0,0,0-1.169-.211,1.186,1.186,0,0,0-.633.269c-.19.124-.412.267-.66.425a3.78,3.78,0,0,1-.854.376,3.315,3.315,0,0,1-2.089,0,3.772,3.772,0,0,1-.853-.376c-.246-.157-.468-.3-.66-.426a1.185,1.185,0,0,0-.633-.269,3.16,3.16,0,0,0-1.168.212,2.808,2.808,0,0,0-.916.575,3.618,3.618,0,0,0-.637.83,5.087,5.087,0,0,0-.423.959,8.074,8.074,0,0,0-.251,1.028,9.592,9.592,0,0,0-.131,1.023c-.021.31-.032.631-.032.956a2.687,2.687,0,0,0,.8,2.033,2.873,2.873,0,0,0,2.056.75h7.791a2.872,2.872,0,0,0,2.056-.75,2.686,2.686,0,0,0,.8-2.033c0-.326-.011-.648-.033-.956Zm0,0" transform="translate(0 -239.5)" fill="#f3493d"/>
  </g>
</svg>
