<svg xmlns="http://www.w3.org/2000/svg" width="36.209" height="46.003" viewBox="0 0 36.209 46.003">
  <g id="user" transform="translate(1 4)">
    <path id="Tracé_1" data-name="Tracé 1" d="M96.908,19.752a9.556,9.556,0,0,0,6.983-2.893,9.555,9.555,0,0,0,2.893-6.983,9.557,9.557,0,0,0-2.893-6.983,9.874,9.874,0,0,0-13.965,0,9.556,9.556,0,0,0-2.893,6.982,9.556,9.556,0,0,0,2.894,6.983A9.558,9.558,0,0,0,96.908,19.752Zm0,0" transform="translate(-80.062 -3)" fill="none" stroke="#707070" stroke-width="2"/>
    <path id="Tracé_2" data-name="Tracé 2" d="M34.126,259.039a24.393,24.393,0,0,0-.332-2.591,20.412,20.412,0,0,0-.637-2.6,12.866,12.866,0,0,0-1.071-2.429,9.168,9.168,0,0,0-1.615-2.1,7.12,7.12,0,0,0-2.32-1.457,8.016,8.016,0,0,0-2.961-.536,3.006,3.006,0,0,0-1.605.681c-.481.314-1.044.677-1.672,1.078a9.581,9.581,0,0,1-2.164.953,8.4,8.4,0,0,1-5.292,0,9.559,9.559,0,0,1-2.162-.953c-.622-.4-1.185-.76-1.674-1.079a3,3,0,0,0-1.6-.681,8.006,8.006,0,0,0-2.961.536,7.114,7.114,0,0,0-2.32,1.457,9.169,9.169,0,0,0-1.614,2.1,12.891,12.891,0,0,0-1.071,2.43,20.461,20.461,0,0,0-.637,2.6,24.307,24.307,0,0,0-.332,2.592c-.054.785-.082,1.6-.082,2.421a6.809,6.809,0,0,0,2.022,5.151,7.28,7.28,0,0,0,5.211,1.9H26.976a7.278,7.278,0,0,0,5.21-1.9,6.806,6.806,0,0,0,2.022-5.151c0-.826-.028-1.641-.083-2.422Zm0,0" transform="translate(0 -227.51)" fill="none" stroke="#707070" stroke-width="2"/>
  </g>
</svg>
