<?xml version="1.0" encoding="utf-8"?>
<!-- Generator: Adobe Illustrator 24.0.0, SVG Export Plug-In . SVG Version: 6.00 Build 0)  -->
<svg version="1.1" id="Capa_1" xmlns="http://www.w3.org/2000/svg" xmlns:xlink="http://www.w3.org/1999/xlink" x="0px" y="0px"
	 viewBox="0 0 512 512" style="enable-background:new 0 0 512 512;" xml:space="preserve">
<style type="text/css">
	.st0{fill:#FFFFFF;}
</style>
<path class="st0" d="M512,225c0,88.1-45.6,169.7-120,216.3V467c0,24.8-20.2,45-45,45H165c-24.8,0-45-20.2-45-45v-25.7
	C45.6,394.7,0,313.1,0,225c0-8.3,6.7-15,15-15h16.5c3.1-14.9,10.6-28.5,21.6-39.1c-5.7-19.5-3.3-40.6,7-58.4
	c10.3-17.8,27.4-30.4,47.1-35.3c4.8-19.7,17.5-36.8,35.3-47.1c17.8-10.3,39-12.7,58.5-7C215.3,8.8,236.1,0,257,0
	c20.5,0,40,8.5,54.1,23.2c19.5-5.7,40.6-3.3,58.4,7c17.8,10.3,30.4,27.4,35.3,47.1c19.7,4.8,36.8,17.5,47.1,35.3
	c10.3,17.8,12.7,38.9,7,58.4c11,10.6,18.6,24.2,21.6,39.1H497C505.3,210,512,216.7,512,225z"/>
<g>
	<g>
		<path d="M447.1,219.5H434c-2.4-11.8-8.4-22.6-17.2-31c4.5-15.5,2.6-32.2-5.5-46.3c-8.1-14.1-21.7-24.1-37.3-28
			c-3.8-15.6-13.9-29.2-28-37.3c-14.1-8.1-30.9-10-46.3-5.5C288.5,59.7,273.1,53,256.8,53c-16.6,0-33.1,7-44.4,18.4
			c-15.5-4.5-32.3-2.7-46.4,5.5c-14.1,8.1-24.1,21.7-28,37.3c-15.6,3.8-29.2,13.9-37.3,28c-8.1,14.1-10,30.9-5.5,46.3
			c-8.8,8.4-14.7,19.2-17.2,31H64.9c-6.6,0-11.9,5.3-11.9,11.9c0,69.8,36.2,134.6,95.2,171.5v20.4c0,19.7,16,35.7,35.7,35.7h144.3
			c19.7,0,35.7-16,35.7-35.7v-20.4c59-36.9,95.2-101.7,95.2-171.5C459,224.9,453.7,219.5,447.1,219.5z M116,202.1
			c4.8-3.3,6.5-9.6,4-14.9c-5-10.6-4.6-23,1.3-33.1c5.8-10.1,16.3-16.7,28.1-17.7c5.8-0.5,10.4-5.1,10.9-10.9
			c1-11.7,7.6-22.2,17.7-28.1c10.1-5.8,22.5-6.3,33.1-1.3c5.3,2.5,11.5,0.8,14.9-4c6.4-9.2,18.8-15.5,30.9-15.5
			c11.7,0,22.6,5.8,29.3,15.5c3.3,4.8,9.6,6.5,14.9,4c10.6-5,23-4.6,33.1,1.3c10.1,5.8,16.7,16.3,17.7,28.1
			c0.5,5.8,5.1,10.4,10.9,10.9c11.7,1,22.2,7.6,28.1,17.7c5.8,10.1,6.3,22.5,1.3,33.1c-2.5,5.3-0.8,11.5,4,14.9
			c6.3,4.3,10.9,10.5,13.4,17.4H102.7C105.1,212.6,109.8,206.4,116,202.1z M340.1,423.3c0,6.6-5.3,11.9-11.9,11.9H183.8
			c-6.6,0-11.9-5.3-11.9-11.9v-13.5h168.1V423.3z M345.7,386H166.3c-51.8-29.9-85.2-83.8-89.1-142.9h357.6
			C430.9,302.3,397.5,356.1,345.7,386z"/>
	</g>
</g>
<g>
	<g>
		<circle cx="302.1" cy="164.6" r="11.3"/>
	</g>
</g>
<g>
	<g>
		<circle cx="347.4" cy="187.3" r="11.3"/>
	</g>
</g>
<g>
	<g>
		<circle cx="164.6" cy="164.6" r="11.3"/>
	</g>
</g>
</svg>
