<?xml version="1.0" encoding="utf-8"?>
<!-- Generator: Adobe Illustrator 24.0.0, SVG Export Plug-In . SVG Version: 6.00 Build 0)  -->
<svg version="1.1" id="Capa_1" xmlns="http://www.w3.org/2000/svg" xmlns:xlink="http://www.w3.org/1999/xlink" x="0px" y="0px"
	 viewBox="0 0 512 512" style="enable-background:new 0 0 512 512;" xml:space="preserve">
<style type="text/css">
	.st0{fill:#FFFFFF;}
</style>
<path class="st0" d="M497.8,228.4c0,1.7,0,3.4,0,5.1c0,0.5,0,1,0,1.6c0,1.2-0.1,2.4-0.1,3.6c0,0.6,0,1.2-0.1,1.8
	c-0.1,1.2-0.1,2.3-0.2,3.5c0,0.6-0.1,1.1-0.1,1.7c-0.1,1.6-0.2,3.2-0.3,4.8c-0.1,0.7-0.1,1.4-0.2,2.1c-0.1,0.9-0.2,1.8-0.3,2.7
	c-0.1,1-0.2,2-0.3,2.9c-0.1,0.6-0.1,1.1-0.2,1.7c-0.1,1.1-0.3,2.3-0.4,3.4c0,0.2,0,0.4-0.1,0.6c-0.4,3-0.8,5.9-1.3,8.9
	c0,0.2-0.1,0.3-0.1,0.5c-5.3,31.2-16.2,61.2-32.3,88.3c-22.2,37.6-53.5,68.5-90.5,89.5v40.6c0,3.9-3.2,7.1-7.1,7.1H148
	c-3.9,0-7.1-3.2-7.1-7.1v-40.6c-37.1-21.1-68.3-52-90.6-89.6c-16-27.1-26.9-57.1-32.3-88.3c0-0.2-0.1-0.3-0.1-0.5
	c-0.5-3-0.9-5.9-1.3-8.9c0-0.2,0-0.4-0.1-0.6c-0.2-1.1-0.3-2.3-0.4-3.5c-0.1-0.5-0.1-1.1-0.2-1.7c-0.1-1-0.2-2-0.3-3
	c-0.1-0.9-0.2-1.8-0.3-2.7c-0.1-0.7-0.2-1.4-0.2-2.2c-0.1-1.6-0.3-3.2-0.4-4.8c0-0.6-0.1-1.1-0.1-1.7c-0.1-1.2-0.1-2.3-0.2-3.5
	c0-0.6,0-1.2-0.1-1.8c-0.1-1.2-0.1-2.4-0.1-3.6c0-0.5,0-1,0-1.6c0-1.7-0.1-3.4-0.1-5.1c0-3.9,3.2-7.1,7.1-7.1h37.9
	c3.4-18.5,19.6-32.6,39.1-32.6c9.3,0,17.8,3.2,24.6,8.6c5.2-16,20.2-27.5,37.8-27.5c0.9,0,1.8,0,2.8,0.1
	c3.2-18.4,19.3-32.4,38.6-32.4c5,0,9.8,0.9,14.2,2.6c0.4-21.6,18.1-39,39.7-39c21.7,0,39.4,17.5,39.7,39.2c4.3-1.6,9-3.1,13.7-2.4
	c12.5,1.8,8.5,0.9,18,10l29.8-77l1-2.7c0,0,0-0.1,0-0.1c3.9-9.1,11.5-16.2,21-19.4c0.1,0,0.2,0,0.3,0c3.5-1.2,7.2-1.8,11.1-1.8
	c17.6,0,32.2,12.9,34.8,29.8c0,0,0,0,0,0.1c0.3,1.7,0.4,3.5,0.4,5.3c0,6.1-1.5,11.8-4.2,16.8c0,0,0,0,0,0l-35.4,91.9
	c1.1,2.1,2.1,4.3,2.8,6.6c6.8-5.4,15.4-8.7,24.8-8.7c19.5,0,35.7,14.1,39.1,32.6h37.9C494.6,221.3,497.8,224.5,497.8,228.4z"/>
<g>
	<g>
		<path d="M445.3,244h-30.6c-2.7-14.9-15.8-26.3-31.5-26.3c-7.5,0-14.5,2.6-20,7c-0.6-1.9-1.3-3.6-2.3-5.3L404,104.8
			c2.5-6.5,1.5-13.9-2.4-19.6c-4-5.7-10.5-9.2-17.5-9.2c-8.8,0-16.9,5.6-20,13.8l-38.1,101.5c-5.7-8.8-15.6-14.6-26.8-14.6
			c-3.8,0-7.6,0.7-11.1,2c-0.2-17.5-14.5-31.6-32-31.6c-17.5,0-31.7,14-32,31.4v0.2c-3.5-1.3-7.2-2-11.1-2c-3.2,0-5.8,2.6-5.8,5.7
			c0,3.2,2.6,5.8,5.8,5.8c5.9,0,11.5,2.6,15.3,6.8c0.5,1,1.2,1.9,1.8,2.8c-3.9,5.4-6,11.9-6,18.7c0,0.5,0,1.1,0,1.7c0,0-0.1,0-0.1,0
			c-2.6,0.5-5,1.3-7.3,2.3c-0.1,0-0.1,0-0.1,0.1c-0.6,0.3-1.1,0.5-1.7,0.8c0,0,0,0-0.1,0c-0.6,0.3-1.1,0.6-1.7,1
			c0,0-0.1,0.1-0.1,0.1c-0.5,0.3-0.9,0.6-1.3,0.9c-0.2,0.1-0.4,0.3-0.6,0.4c-0.3,0.2-0.6,0.4-0.8,0.6c-0.1,0.1-0.3,0.2-0.4,0.3
			c-2.7-8.5-8.9-15.5-17.1-19.3c0.6-3.4,2-6.5,4.1-9.3c2-2.5,1.5-6.1-1-8.1c-2.5-2-6.1-1.5-8.1,1c-3.2,4-5.3,8.6-6.2,13.5h0
			c-0.7,0-1.5-0.1-2.2-0.1c-14.2,0-26.3,9.3-30.5,22.2c-5.5-4.3-12.4-6.9-19.9-6.9c-15.7,0-28.8,11.4-31.5,26.3H66.7
			c-3.2,0-5.8,2.6-5.8,5.7c0,1.4,0,2.8,0,4.1c0,0.4,0,0.8,0,1.3c0,1,0.1,1.9,0.1,2.9c0,0.5,0,1,0.1,1.4c0,1,0.1,1.9,0.1,2.8
			c0,0.5,0,0.9,0.1,1.4c0.1,1.3,0.2,2.6,0.3,3.9c0,0.6,0.1,1.2,0.2,1.8c0.1,0.7,0.1,1.4,0.2,2.1c0.1,0.8,0.2,1.6,0.3,2.4
			c0,0.4,0.1,0.9,0.1,1.3c0.1,0.9,0.2,1.9,0.4,2.8c0,0.2,0,0.3,0.1,0.5c0.3,2.4,0.7,4.8,1.1,7.2c0,0.1,0.1,0.3,0.1,0.4
			c4.3,25.2,13.1,49.3,26.1,71.2c18,30.4,43.2,55.3,73.1,72.3v32.7c0,3.2,2.6,5.8,5.7,5.8h174.2c3.2,0,5.8-2.6,5.8-5.8v-32.8
			c29.9-17,55.1-41.9,73-72.2c12.9-21.9,21.7-46,26-71.2c0-0.1,0.1-0.3,0.1-0.4c0.4-2.4,0.8-4.8,1.1-7.2c0-0.2,0-0.3,0.1-0.5
			c0.1-0.9,0.2-1.8,0.3-2.8c0.1-0.5,0.1-0.9,0.2-1.4c0.1-0.8,0.2-1.6,0.3-2.4c0.1-0.7,0.1-1.5,0.2-2.2c0.1-0.6,0.1-1.1,0.2-1.7
			c0.1-1.3,0.2-2.6,0.3-3.9c0-0.4,0.1-0.9,0.1-1.3c0.1-1,0.1-1.9,0.2-2.8c0-0.5,0-0.9,0.1-1.4c0-1,0.1-1.9,0.1-2.9
			c0-0.4,0-0.8,0-1.3c0-1.4,0-2.7,0-4.1C451,246.6,448.5,244,445.3,244z M383.2,229.2c9.4,0,17.3,6.3,19.7,14.8h-39.5
			C365.9,235.5,373.8,229.2,383.2,229.2z M374.8,93.9c1.4-3.8,5.1-6.4,9.2-6.4c3.3,0,6.2,1.5,8.1,4.2c1.9,2.7,2.3,6,1.1,9
			l-40.8,108.5c-3-2.4-6.5-4.2-10.2-5.3c-0.1,0-0.2-0.1-0.3-0.1c-0.4-0.1-0.8-0.2-1.1-0.3c-0.1,0-0.2-0.1-0.4-0.1
			c-0.4-0.1-0.8-0.2-1.3-0.3c-0.1,0-0.1,0-0.2,0c-0.5-0.1-1-0.2-1.4-0.3c-0.1,0-0.3,0-0.4-0.1c-0.3,0-0.7-0.1-1-0.1
			c-0.2,0-0.3,0-0.5,0c-0.3,0-0.7-0.1-1-0.1c-0.2,0-0.3,0-0.4,0c0,0-0.1,0-0.1,0L374.8,93.9z M325.3,215.3
			C325.4,215.3,325.4,215.3,325.3,215.3c0.6-0.2,1.1-0.4,1.6-0.5c0,0,0.1,0,0.1,0c0.9-0.3,1.8-0.5,2.7-0.6c0,0,0.1,0,0.1,0
			c0.4-0.1,0.8-0.1,1.2-0.1c0.1,0,0.2,0,0.3,0c0.4,0,0.9,0,1.3,0c0.4,0,0.8,0,1.2,0c0.1,0,0.2,0,0.4,0c0.3,0,0.6,0,0.8,0.1
			c0.1,0,0.3,0,0.4,0.1c0.3,0,0.5,0.1,0.8,0.1c0.1,0,0.2,0,0.4,0.1c0.3,0.1,0.6,0.1,0.9,0.2c0.1,0,0.1,0,0.2,0.1
			c0.4,0.1,0.7,0.2,1.1,0.3c0.1,0,0.3,0.1,0.4,0.1c0.2,0.1,0.4,0.2,0.7,0.2c0.2,0.1,0.3,0.1,0.5,0.2c0.2,0.1,0.3,0.1,0.5,0.2
			c0.2,0.1,0.4,0.2,0.6,0.3c0.1,0,0.2,0.1,0.3,0.2c0.8,0.4,1.5,0.8,2.3,1.3c0,0,0.1,0,0.1,0.1c0.3,0.2,0.5,0.4,0.8,0.5
			c0,0,0,0,0.1,0c1,0.8,2,1.6,2.8,2.5c0.1,0,0.1,0.1,0.1,0.1c0.2,0.2,0.4,0.4,0.5,0.6c0.1,0.1,0.1,0.1,0.2,0.2
			c2.9,3.5,4.6,8,4.6,12.9c0,3.3-0.8,6.6-2.3,9.5h-36.5c-1.5-2.9-2.3-6.2-2.3-9.5v-0.3c0,0,0,0,0,0
			C312.2,225.8,317.6,218.3,325.3,215.3z M283.8,195.1c3.8-4.3,9.3-6.8,15.3-6.8c10.2,0,18.6,7.4,20.3,17.1c0,0-0.1,0-0.1,0
			c-0.5,0.2-0.9,0.4-1.4,0.7c0,0,0,0,0,0c-7.4,3.9-13.1,10.5-15.7,18.5c-0.1-0.1-0.2-0.2-0.3-0.3c-0.3-0.2-0.6-0.4-0.9-0.7
			c-0.2-0.1-0.3-0.3-0.5-0.4c-1-0.7-2-1.3-3.1-1.9c0,0-0.1,0-0.1-0.1c-0.5-0.3-1.1-0.5-1.6-0.8c0,0-0.1,0-0.2-0.1
			c-2.3-1-4.7-1.8-7.3-2.3c0,0-0.1,0-0.1,0c0-0.6,0-1.1,0-1.7c0-6.8-2.1-13.3-6-18.7C282.7,197,283.3,196.1,283.8,195.1z
			 M282.3,229.2c0.5,0,1,0,1.5,0.1c0.2,0,0.3,0,0.5,0c0.3,0,0.7,0.1,1,0.1c0.2,0,0.4,0.1,0.5,0.1c0.4,0.1,0.9,0.2,1.3,0.3
			c0.2,0,0.4,0.1,0.7,0.2c0.2,0.1,0.5,0.1,0.7,0.2c0.3,0.1,0.5,0.2,0.7,0.3c0.2,0.1,0.4,0.2,0.6,0.3c0.2,0.1,0.5,0.2,0.7,0.3
			c0.4,0.2,0.8,0.4,1.2,0.6c0.2,0.1,0.4,0.2,0.6,0.3c0.2,0.1,0.5,0.3,0.7,0.4c0.2,0.1,0.3,0.2,0.5,0.3c0.3,0.2,0.6,0.4,0.8,0.6
			c0.1,0.1,0.2,0.2,0.3,0.2c0.4,0.3,0.8,0.6,1.1,0.9c0.1,0.1,0.2,0.1,0.2,0.2c0.3,0.3,0.6,0.6,0.9,0.9c0.1,0.1,0.2,0.2,0.3,0.3
			c0.3,0.3,0.6,0.6,0.8,1c0,0.1,0.1,0.1,0.2,0.2c1.7,2.1,3,4.5,3.8,7.2h-39.5C265,235.5,273,229.2,282.3,229.2z M235.5,218.3
			c-0.1-0.6-0.1-1.1-0.1-1.7c0-5.3,2-10.4,5.7-14.2c0.1-0.1,0.1-0.1,0.2-0.2c0.1-0.1,0.1-0.1,0.2-0.2c0.5-0.5,1.1-1,1.7-1.5
			c3.6-2.9,8.1-4.5,12.8-4.5c5.5,0,10.6,2.1,14.5,5.9c0.1,0.1,0.1,0.1,0.2,0.2c0.1,0.1,0.1,0.1,0.2,0.2c3.7,3.9,5.7,8.9,5.7,14.2
			c0,0.6,0,1.1-0.1,1.7c-8.4,1.6-15.7,6.4-20.5,13.2c-3.5-5-8.5-9-14.3-11.4C239.8,219.3,237.7,218.7,235.5,218.3z M256,158.6
			c11.3,0,20.6,9.2,20.6,20.6c0,3.3-0.8,6.5-2.2,9.3c-0.3,0.4-0.6,0.8-0.9,1.2c-5.1-3.3-11.1-5.1-17.4-5.1s-12.3,1.8-17.4,5.1
			c-0.3-0.4-0.6-0.8-0.9-1.2c-1.5-2.9-2.2-6-2.2-9.3C235.4,167.8,244.7,158.6,256,158.6z M213.7,236.8c0-0.1,0.1-0.1,0.1-0.2
			c0.3-0.3,0.6-0.6,0.9-1c0.1-0.1,0.2-0.2,0.3-0.3c0.3-0.3,0.6-0.6,0.9-0.9c0.1-0.1,0.1-0.1,0.2-0.2c0.4-0.3,0.7-0.6,1.1-0.9
			c0.1-0.1,0.2-0.1,0.3-0.2c0.3-0.2,0.6-0.4,0.9-0.6c0.2-0.1,0.3-0.2,0.5-0.3c0.2-0.1,0.5-0.3,0.7-0.4c0.2-0.1,0.4-0.2,0.6-0.3
			c0.4-0.2,0.8-0.4,1.2-0.6c0.2-0.1,0.5-0.2,0.7-0.3c0.2-0.1,0.4-0.2,0.7-0.3c0.2-0.1,0.5-0.2,0.7-0.3c0.2-0.1,0.5-0.1,0.7-0.2
			c0.2-0.1,0.4-0.1,0.7-0.2c0.4-0.1,0.9-0.2,1.3-0.3c0.2,0,0.4-0.1,0.5-0.1c0.3-0.1,0.7-0.1,1-0.1c0.2,0,0.3,0,0.5,0
			c0.5,0,1-0.1,1.5-0.1c1.9,0,3.8,0.3,5.6,0.8c6.8,1.9,12.2,7.3,14.2,14H210c0.5-1.6,1.1-3,1.9-4.4
			C212.4,238.7,213,237.7,213.7,236.8z M179.2,214c0.8,0,1.6,0,2.3,0.1c1.2,0.1,2.4,0.4,3.5,0.7c0.5,0.1,1,0.3,1.4,0.5
			c0.1,0,0.2,0.1,0.3,0.1c0.3,0.1,0.6,0.3,1,0.4c0.3,0.1,0.6,0.3,0.9,0.5c0.1,0.1,0.3,0.1,0.4,0.2c4.5,2.5,8,6.6,9.6,11.6
			c0.1,0.3,0.2,0.6,0.3,0.9c0,0.1,0.1,0.2,0.1,0.4c0.1,0.5,0.2,1,0.3,1.4c0,0.1,0,0.1,0,0.2c0.2,1,0.3,2.1,0.3,3.2c0,0,0,0,0,0
			c0,0.1,0,0.2,0,0.3c0,0.8,0,1.6-0.1,2.4c-0.3,2.5-1,4.9-2.2,7.1H161c-1.5-2.9-2.3-6.2-2.3-9.5C158.6,223.2,167.8,214,179.2,214z
			 M128.8,229.2c9.3,0,17.3,6.3,19.7,14.8h-39.5C111.6,235.5,119.5,229.2,128.8,229.2z M439.2,261c0,0.2,0,0.4,0,0.6
			c-0.1,1.7-0.2,3.3-0.4,5c0,0.4-0.1,0.8-0.1,1.1c-0.1,1.5-0.3,3-0.5,4.6c-0.1,0.5-0.1,1.1-0.2,1.7c-0.2,1.4-0.3,2.7-0.5,4
			c0,0.3-0.1,0.6-0.1,0.9H132.3c-3.2,0-5.7,2.6-5.7,5.8c0,3.2,2.6,5.7,5.7,5.7h303.1c-4.4,21.5-12.3,42.2-23.4,61
			c-17.2,29.2-41.6,53-70.4,69h-32.9c-3.2,0-5.8,2.6-5.8,5.7c0,3.2,2.6,5.8,5.8,5.8h28.7v24.6H174.7v-24.6h111
			c3.2,0,5.8-2.6,5.8-5.8c0-3.2-2.6-5.7-5.8-5.7H170.4c-28.8-16-53.2-39.8-70.4-69c-11.1-18.8-19-39.5-23.4-61h32.8
			c3.2,0,5.8-2.6,5.8-5.7c0-3.2-2.6-5.8-5.8-5.8H74.5c0-0.3-0.1-0.6-0.1-0.9c-0.2-1.3-0.4-2.7-0.5-4c-0.1-0.5-0.1-1.1-0.2-1.7
			c-0.2-1.5-0.3-3-0.5-4.5c0-0.4-0.1-0.8-0.1-1.1c-0.1-1.7-0.3-3.3-0.4-5c0-0.2,0-0.4,0-0.6c-0.1-1.8-0.2-3.6-0.2-5.4h366.9
			C439.4,257.3,439.3,259.2,439.2,261z"/>
	</g>
</g>
</svg>
