<?xml version="1.0" encoding="utf-8"?>
<!-- Generator: Adobe Illustrator 24.0.0, SVG Export Plug-In . SVG Version: 6.00 Build 0)  -->
<svg version="1.1" id="Layer_3" xmlns="http://www.w3.org/2000/svg" xmlns:xlink="http://www.w3.org/1999/xlink" x="0px" y="0px"
	 viewBox="0 0 512 512" style="enable-background:new 0 0 512 512;" xml:space="preserve">
<style type="text/css">
	.st0{fill:#FFFFFF;}
</style>
<g>
	<path class="st0" d="M256,482.9c-63.1,0-122.7-15.2-167.8-42.9c-47.5-29.1-73.7-68.6-73.7-111.1c0-32.9,15.4-63.9,44.6-89.9
		c0.7-4,1.7-8.1,3.2-12c-2.7-7.2-4.1-14.5-4.1-22c0-26.8,18.1-51.8,50.8-70.3c24.6-13.9,57.1-23.9,93.2-28.9
		c-8.2-11.2-12.8-24.8-12.8-39.2V51.9c0-12.6,10.2-22.8,22.8-22.8c17.4,0,33.8,6.7,46.3,18.9c1.3,1.3,2.6,2.6,3.8,4V36.4H308v19.1
		c0,17-5.1,33.8-14.4,48.1c0.1,0.1,0.1,0.2,0.2,0.2c42.4,4,81,14.9,109.1,30.8c32.8,18.5,50.8,43.5,50.8,70.3c0,7.4-1.4,14.8-4.1,22
		c1.5,4,2.6,8,3.2,12c29.2,26.1,44.6,57.1,44.6,89.9c0,42.5-26.2,82-73.7,111.1C378.7,467.7,319.1,482.9,256,482.9z"/>
	<path class="st0" d="M212.3,44.6c27.6,0,50.1,22.1,51,49.5c9.3-10.6,14.7-24.3,14.7-38.5v-3.6h14.6v3.6c0,19.1-7.7,37.5-21,51
		c5.8,2.8,10.8,6.9,14.5,12.2c88.4,6.9,152.3,42.8,152.3,86.3c0,7.6-2,14.9-5.6,21.9c3.3,6.4,5.1,13.1,5.4,19.8
		c28.6,23.8,43.9,52.2,43.9,82.2c0,76.4-101.4,138.5-226,138.5S30,405.3,30,328.9c0-30,15.2-58.4,43.9-82.2
		c0.3-6.7,2.1-13.4,5.4-19.8c-3.7-7-5.6-14.4-5.6-22c0-43.5,63.8-79.4,152.3-86.3c1.8-2.6,4.1-4.9,6.5-7
		c-16.3-8.5-27.6-25.6-27.6-45.3V51.9C205,47.8,208.2,44.6,212.3,44.6 M212.3,13.6c-21.1,0-38.3,17.2-38.3,38.3v14.6
		c0,9.5,1.6,18.8,4.7,27.4c-29.5,5.9-55.7,15.1-77.2,27.2c-37.9,21.4-58.7,51.2-58.7,83.8c0,7.5,1.1,14.9,3.3,22.1
		c-0.4,1.3-0.7,2.6-1.1,3.9c-30.1,28.4-46,62-46,98c0,25.1,7.8,49.1,23.3,71.5c13.9,20.1,33.3,37.8,57.8,52.8
		c47.5,29.1,110,45.2,175.9,45.2s128.4-16,175.9-45.2c24.5-15,43.9-32.8,57.8-52.8C505.2,378,513,354,513,328.9
		c0-35.9-15.8-69.6-45.9-98c-0.3-1.3-0.7-2.7-1.1-4c2.2-7.2,3.3-14.6,3.3-22c0-32.7-20.9-62.4-58.7-83.8
		c-25.4-14.4-57.4-24.6-93.5-30.1c4.2-11.4,6.4-23.4,6.4-35.5v-3.6v-31h-31h-14.6h-31v0.4C236.2,16.2,224.4,13.6,212.3,13.6
		L212.3,13.6z"/>
</g>
<path d="M438.1,246.7c-0.3-6.8-2.1-13.4-5.4-19.8c3.6-7,5.6-14.4,5.6-21.9c0-43.5-63.8-79.4-152.3-86.3c-3.6-5.2-8.6-9.4-14.5-12.2
	c13.2-13.5,21-31.9,21-51v-3.6h-14.6v3.6c0,14.3-5.4,28-14.7,38.5c-0.8-27.4-23.4-49.5-51-49.5c-4,0-7.3,3.3-7.3,7.3v14.6
	c0,19.7,11.2,36.7,27.6,45.3c-2.4,2.1-4.7,4.4-6.5,7c-88.4,6.9-152.3,42.8-152.3,86.3c0,7.6,1.9,15,5.6,22c-3.3,6.4-5.1,13-5.4,19.8
	C45.2,270.6,30,298.9,30,328.9c0,76.4,101.4,138.5,226,138.5s226-62.1,226-138.5C482,298.9,466.8,270.6,438.1,246.7z M291.9,133.9
	c74.7,7.4,131.8,37.7,131.8,71.1c0,23.6-27.9,46.2-73.4,60c-1-6.2-3.6-12.1-7.5-17c5.3-1.2,10.2-4,14.1-7.9
	c9.7,3.1,20.8,0.5,28.3-6.5c13.6-2.5,23.9-14.6,23.9-28.6c0-14-10.3-26.1-23.9-28.6c-7.5-7-18.6-9.7-28.3-6.5
	c-6-6.1-14.2-9.3-23.2-8.5c-8.9-8-22.4-9.4-33-3.9c-3.5-1.7-7.4-2.7-11.5-3.2c2.1-4.6,3.3-9.6,3.3-15
	C292.5,137.5,292.2,135.7,291.9,133.9z M275.7,282.9c-7.7-3.7-12.4-11.2-12.4-19.6c0-1.7,0.3-3.4,0.8-5.6c0.6-2.3,0.1-4.7-1.4-6.5
	c-1.5-1.8-3.7-2.8-6.1-2.7c-0.4,0-0.7,0.1-1.1,0.1c-4.8-0.1-9.2-2.7-11.9-6.8c-2.1-3.3-6.4-4.4-9.8-2.4c-2.3,1.3-4.7,2-7.1,2
	c-4.5,0-7.8-2.1-9.7-3.8c-2.8-2.5-7-2.5-9.8,0c-1.9,1.7-5.2,3.8-9.7,3.8c-4.3,0-8.3-1.9-11.1-5.3c-1.8-2.1-4.6-3.1-7.3-2.4
	c-1.3,0.3-2.4,0.5-3.4,0.5c-5,0-9.6-2.6-12.3-6.8c-2.1-3.3-6.4-4.4-9.8-2.4c-6.2,3.5-13.5,2.1-18-3c-1.2-1.4-3-2.3-4.9-2.4
	c-7.6-0.6-13.4-6.8-13.4-14.4c0-7.6,5.8-13.8,13.4-14.4c1.9-0.2,3.6-1,4.9-2.4c4.5-5.1,11.8-6.6,18-3c3.4,1.9,7.7,0.9,9.8-2.4
	c2.7-4.3,7.3-6.8,12.3-6.8c1,0,2.1,0.2,3.4,0.5c2.7,0.7,5.5-0.3,7.3-2.4c2.8-3.4,7-5.1,11.2-5.1c-4.5,6.1-7.3,13.5-7.3,21.7
	c0,20.1,16.4,36.5,36.5,36.5c12,0,22.5-5.9,29.2-14.8c6.7,8.9,17.2,14.8,29.2,14.8c20.1,0,36.5-16.4,36.5-36.5
	c0-8.1-2.8-15.6-7.3-21.7c4.2,0,8.4,1.7,11.2,5.1c1.8,2.1,4.6,3.1,7.3,2.4c1.3-0.3,2.4-0.5,3.4-0.5c5,0,9.6,2.6,12.3,6.8
	c2.1,3.3,6.4,4.4,9.8,2.4c6.2-3.5,13.5-2.1,18,3.1c1.2,1.4,3,2.3,4.9,2.4c7.6,0.6,13.4,6.8,13.4,14.4c0,7.6-5.8,13.8-13.4,14.4
	c-1.9,0.2-3.6,1-4.9,2.4c-4.5,5.1-11.7,6.6-18,3.1c-3.4-1.9-7.7-0.9-9.8,2.4c-2.7,4.3-7.3,6.8-12.3,6.8c-1,0-2.1-0.2-3.4-0.5
	c-2.7-0.7-5.6,0.3-7.3,2.4c-0.4,0.4-0.8,0.8-1.6,1.5c-1.4,1.3-2.3,3.1-2.4,5c0,0.6-0.1,1.1-0.2,1.7c-0.4,3,1.1,5.8,3.7,7.3
	c6.9,3.9,11.2,11.2,11.2,19c0,4.4-1.3,8.6-3.8,12.2c-1.3,1.9-1.6,4.2-0.9,6.4c0.7,2.1,2.4,3.8,4.5,4.6c8.8,3.1,14.7,11.3,14.7,20.5
	c0,12.1-9.8,21.9-21.9,21.9c-7.8,0-15.1-4.3-19-11.2c-1.5-2.6-4.4-4-7.3-3.7l-0.8,0.1c-0.7,0.1-1.3,0.2-2,0.2
	c-12.1,0-21.9-9.8-21.9-21.9c0-2.5,0.5-5.1,1.5-7.7C280.7,288.5,279.1,284.6,275.7,282.9z M348.4,283.6c0.4-1.1,0.6-2.2,0.9-3.3
	c33.2-9.3,58.4-23,73.3-39.3c0.7,2.5,1.1,5.1,1.1,7.6c0,21-22.2,41.4-59.9,55.4C361.3,295.7,355.9,288.4,348.4,283.6z M285.2,168.5
	c12.1,0,21.9,9.8,21.9,21.9c0,12.1-9.8,21.9-21.9,21.9c-12.1,0-21.9-9.8-21.9-21.9C263.3,178.3,273.1,168.5,285.2,168.5z
	 M277.9,139.4c0,12.1-9.8,21.9-21.9,21.9c-12.1,0-21.9-9.8-21.9-21.9c0-12.1,9.8-21.9,21.9-21.9
	C268.1,117.5,277.9,127.3,277.9,139.4z M219.5,66.5v-6.6c16.6,3.4,29.2,18.1,29.2,35.7v6.6C232.1,98.8,219.5,84.1,219.5,66.5z
	 M226.8,168.5c12.1,0,21.9,9.8,21.9,21.9c0,12.1-9.8,21.9-21.9,21.9c-12.1,0-21.9-9.8-21.9-21.9C205,178.3,214.8,168.5,226.8,168.5z
	 M220.1,133.9c-0.3,1.8-0.6,3.6-0.6,5.5c0,5.3,1.2,10.4,3.3,15c-4,0.4-7.9,1.5-11.5,3.2c-10.6-5.6-24.1-4.1-33,3.9
	c-9-0.9-17.2,2.4-23.2,8.5c-9.7-3.1-20.8-0.5-28.3,6.5c-13.6,2.5-23.9,14.5-23.9,28.6c0,14,10.3,26.1,23.9,28.6
	c7.5,7,18.6,9.6,28.3,6.5c6,6.1,14.2,9.4,23.2,8.5c9.1,8.2,23.3,9.6,33.9,3.4c6.9,4.1,15.5,5.1,23.1,2.7c3.7,3.8,8.3,6.4,13.4,7.7
	c0,0.3,0,0.6,0,0.9c0,5.1,1.1,10,3.1,14.5c-89-1-163.5-34-163.5-72.9C88.3,171.5,145.4,141.2,220.1,133.9z M89.4,241
	c28.1,30.6,91.3,51.5,166.6,51.5c2.5,0,4.9-0.1,7.4-0.1c0.2,0.2,0.4,0.4,0.6,0.5c-0.5,2.3-0.7,4.6-0.7,6.9c0,8.1,2.7,15.5,7.2,21.5
	c-4.8,0.2-9.7,0.3-14.5,0.3c-90.9,0-167.7-33.4-167.7-72.9C88.3,246.1,88.7,243.6,89.4,241z M89.4,284.7
	c28.1,30.6,91.3,51.5,166.6,51.5c11.4,0,22.8-0.5,34-1.5c3.1,0.9,6.4,1.5,9.8,1.5h0.2c6.8,9.1,17.6,14.6,29,14.6
	c18.4,0,33.5-13.8,36-31.6c25.7-9,45.3-20.8,57.8-34.3c0.6,2.5,1,5,1,7.6c0,39.5-76.8,72.9-167.7,72.9S88.3,332,88.3,292.5
	C88.3,289.9,88.7,287.3,89.4,284.7z M89.4,328.5c28.1,30.6,91.3,51.4,166.6,51.4s138.5-20.9,166.6-51.4c0.7,2.6,1.1,5.1,1.1,7.7
	c0,39.5-76.8,72.9-167.7,72.9S88.3,375.7,88.3,336.2C88.3,333.6,88.7,331.1,89.4,328.5z M256,452.8c-116.6,0-211.4-55.6-211.4-123.9
	c0-23.2,11-45.5,31.8-65.1c0.8,2.3,1.8,4.6,2.9,6.9c-3.6,7-5.6,14.4-5.6,21.8c0,7.6,1.9,15,5.6,22c-3.6,7.1-5.6,14.4-5.6,21.8
	c0,49.1,80.1,87.5,182.3,87.5s182.3-38.4,182.3-87.5c0-7.4-1.9-14.7-5.6-21.8c3.6-7,5.6-14.4,5.6-22c0-7.4-1.9-14.7-5.5-21.7
	c1.2-2.3,2.1-4.5,2.9-6.9c20.8,19.6,31.8,41.9,31.8,65.1C467.4,397.2,372.6,452.8,256,452.8z"/>
</svg>
