<?xml version="1.0" encoding="utf-8"?>
<!-- Generator: Adobe Illustrator 24.0.0, SVG Export Plug-In . SVG Version: 6.00 Build 0)  -->
<svg version="1.1" id="Layer_1" xmlns="http://www.w3.org/2000/svg" xmlns:xlink="http://www.w3.org/1999/xlink" x="0px" y="0px"
	 viewBox="0 0 512 512" style="enable-background:new 0 0 512 512;" xml:space="preserve">
<style type="text/css">
	.st0{fill:#FFFFFF;}
</style>
<g>
	<path class="st0" d="M59.4,442.8c-23.6,0-42.9-19.2-42.9-42.9V208c0-37,14.5-71.8,40.7-98.1c26.3-26.3,61.1-40.8,98.1-40.8
		c5.2,0,10.3,0.9,15.1,2.8l295.3,95.3c17.8,5.7,29.7,22.1,29.7,40.8v192c0,23.6-19.2,42.9-42.9,42.9H59.4z"/>
	<path class="st0" d="M155.3,87.7c3.1,0,6.1,0.6,9,1.7l295.8,95.5c10.1,3.3,16.9,12.6,16.9,23.1v192c0,13.4-10.9,24.4-24.4,24.4
		H59.4C45.9,424.3,35,413.4,35,400V208c0-32,12.5-62.2,35.3-85C93.1,100.2,123.3,87.7,155.3,87.7 M155.3,50.7
		c-41.9,0-81.4,16.4-111.1,46.2C14.4,126.6-2,166.1-2,208v192c0,33.8,27.5,61.4,61.4,61.4h393.3c33.8,0,61.4-27.5,61.4-61.4V208
		c0-26.7-17.1-50.2-42.6-58.4L176.5,54.4C169.7,51.9,162.6,50.7,155.3,50.7L155.3,50.7z"/>
</g>
<g>
	<g>
		<path d="M460.1,184.9L164.3,89.4c-2.9-1.1-5.9-1.7-9-1.7c-32,0-62.2,12.5-85,35.3C47.5,145.8,35,176,35,208v192
			c0,13.4,10.9,24.4,24.4,24.4h393.3c13.4,0,24.4-10.9,24.4-24.4V208C477,197.4,470.2,188.1,460.1,184.9z M459.7,400
			c0,3.9-3.2,7.1-7.1,7.1H59.4c-3.9,0-7.1-3.2-7.1-7.1V216.7h70.5c4.8,0,8.6-3.9,8.6-8.6s-3.9-8.6-8.6-8.6H52.6
			c2-24.2,12.4-46.7,29.9-64.2c19.5-19.5,45.4-30.3,72.8-30.3c0.9,0,1.8,0.2,2.7,0.5c0.2,0.1,0.4,0.2,0.7,0.2l290.3,93.7H200.5
			c-4.8,0-8.6,3.9-8.6,8.6s3.9,8.6,8.6,8.6h259.3V400z"/>
		<path d="M126.9,250.9c-14.3,0-25.9,11.6-25.9,25.9c0,14.3,11.6,25.9,25.9,25.9c14.3,0,25.9-11.6,25.9-25.9
			C152.8,262.5,141.1,250.9,126.9,250.9z M126.9,285.5c-4.8,0-8.6-3.9-8.6-8.6c0-4.8,3.9-8.6,8.6-8.6c4.8,0,8.6,3.9,8.6,8.6
			C135.5,281.6,131.6,285.5,126.9,285.5z"/>
		<path d="M307.3,330.3c-14.3,0-25.9,11.6-25.9,25.9c0,14.3,11.6,25.9,25.9,25.9c14.3,0,25.9-11.6,25.9-25.9
			C333.2,342,321.6,330.3,307.3,330.3z M307.3,364.9c-4.8,0-8.6-3.9-8.6-8.6c0-4.8,3.9-8.6,8.6-8.6c4.8,0,8.6,3.9,8.6,8.6
			C315.9,361,312,364.9,307.3,364.9z"/>
		<path d="M397.5,259.6c-15.5,0-28.1,12.6-28.1,28.1c0,15.5,12.6,28.1,28.1,28.1c15.5,0,28.1-12.6,28.1-28.1
			C425.5,272.1,413,259.6,397.5,259.6z M397.5,298.4c-5.9,0-10.8-4.8-10.8-10.8c0-5.9,4.8-10.8,10.8-10.8c6,0,10.8,4.8,10.8,10.8
			C408.3,293.6,403.4,298.4,397.5,298.4z"/>
		<path d="M257.2,246.2c-19,0-34.5,15.5-34.5,34.5c0,19,15.5,34.5,34.5,34.5s34.5-15.5,34.5-34.5
			C291.7,261.7,276.3,246.2,257.2,246.2z M257.2,298c-9.5,0-17.3-7.7-17.3-17.3c0-9.5,7.8-17.3,17.3-17.3c9.5,0,17.3,7.7,17.3,17.3
			C274.5,290.2,266.7,298,257.2,298z"/>
		<path d="M180.8,328.6c-15.5,0-28.1,12.6-28.1,28.1c0,15.5,12.6,28.1,28.1,28.1c15.5,0,28.1-12.6,28.1-28.1
			C208.9,341.2,196.3,328.6,180.8,328.6z M180.8,367.5c-6,0-10.8-4.8-10.8-10.8c0-6,4.8-10.8,10.8-10.8c5.9,0,10.8,4.8,10.8,10.8
			C191.6,362.6,186.8,367.5,180.8,367.5z"/>
		<path d="M102.7,345.5L102.7,345.5c-4.8,0-8.6,3.9-8.6,8.6s3.9,8.6,8.6,8.6c4.8,0,8.6-3.9,8.6-8.6S107.5,345.5,102.7,345.5z"/>
		<path d="M186,297.5c4.8,0,8.6-3.9,8.6-8.6c0-4.8-3.9-8.6-8.6-8.6h0c-4.8,0-8.6,3.9-8.6,8.6C177.4,293.7,181.2,297.5,186,297.5z"/>
		<path d="M243,346.8L243,346.8c-4.8,0-8.6,3.9-8.6,8.6c0,4.8,3.9,8.6,8.6,8.6c4.8,0,8.6-3.9,8.6-8.6
			C251.6,350.6,247.7,346.8,243,346.8z"/>
		<path d="M335.3,261.7c4.8,0,8.6-3.9,8.6-8.6c0-4.8-3.9-8.6-8.6-8.6h0c-4.8,0-8.6,3.9-8.6,8.6C326.7,257.9,330.6,261.7,335.3,261.7
			z"/>
		<path d="M392.7,348.9L392.7,348.9c-4.8,0-8.6,3.9-8.6,8.6c0,4.8,3.9,8.6,8.6,8.6c4.8,0,8.6-3.9,8.6-8.6
			C401.4,352.8,397.5,348.9,392.7,348.9z"/>
		<path d="M337.9,298L337.9,298c-4.8,0-8.6,3.9-8.6,8.6c0,4.8,3.9,8.6,8.6,8.6s8.6-3.9,8.6-8.6C346.6,301.8,342.7,298,337.9,298z"/>
		<path d="M142,152.1c4.8,0,8.6-3.9,8.6-8.6c0-4.8-3.9-8.6-8.6-8.6h0c-4.8,0-8.6,3.9-8.6,8.6C133.3,148.2,137.2,152.1,142,152.1
			L142,152.1z"/>
		<path d="M228.3,178.8c4.8,0,8.6-3.9,8.6-8.6c0-4.8-3.9-8.6-8.6-8.6h0c-4.8,0-8.6,3.9-8.6,8.6C219.7,175,223.5,178.8,228.3,178.8z"
			/>
		<path d="M161.6,216.7c4.8,0,8.6-3.9,8.6-8.6c0-4.8-3.9-8.6-8.6-8.6h0c-4.8,0-8.6,3.9-8.6,8.6C153,212.8,156.8,216.7,161.6,216.7z"
			/>
	</g>
</g>
</svg>
