<?xml version="1.0" encoding="utf-8"?>
<!-- Generator: Adobe Illustrator 24.0.0, SVG Export Plug-In . SVG Version: 6.00 Build 0)  -->
<svg version="1.1" id="Calque_1" xmlns="http://www.w3.org/2000/svg" xmlns:xlink="http://www.w3.org/1999/xlink" x="0px" y="0px"
	 viewBox="0 0 512 512" style="enable-background:new 0 0 512 512;" xml:space="preserve">
<style type="text/css">
	.st0{fill:#FFFFFF;}
</style>
<g>
	<g>
		<path class="st0" d="M348.7,286c-16.5,0-30-13.5-30-30c0-16.5,13.5-30,30-30c16.6,0,30,13.5,30,30S365.2,286,348.7,286z"/>
		<path class="st0" d="M348.7,237c10.5,0,19,8.5,19,19s-8.5,19-19,19c-10.5,0-19-8.5-19-19C329.7,245.5,338.2,237,348.7,237
			 M348.7,215L348.7,215L348.7,215c-22.6,0-41,18.4-41,41c0,22.6,18.4,41,41,41s41-18.4,41-41S371.3,215,348.7,215L348.7,215z"/>
	</g>
	<g>
		<path class="st0" d="M346,162.8c-23.2,0-42-18.8-42-42c0-23.1,18.9-42,42-42c23.2,0,42,18.8,42,42S369.2,162.8,346,162.8z"/>
		<path class="st0" d="M346,89.8c17.1,0,31,13.9,31,31s-13.9,31-31,31s-31-13.9-31-31C315,103.7,328.9,89.8,346,89.8 M346,67.8
			L346,67.8L346,67.8c-29.2,0-53,23.8-53,53c0,29.3,23.8,53,53,53s53-23.8,53-53S375.2,67.8,346,67.8L346,67.8z"/>
	</g>
	<g>
		<path class="st0" d="M397.2,230.8c-9.6,0-18.6-3.8-25.4-10.6c-6.8-6.8-10.5-15.8-10.6-25.4c0-19.9,16.1-36,36-36s36,16.1,36,36
			S417.1,230.8,397.2,230.8L397.2,230.8z"/>
		<path class="st0" d="M397.2,169.8c13.8,0,25,11.2,25,25s-11.2,25-25,25c-6.9,0-13.1-2.8-17.7-7.3c-4.5-4.5-7.3-10.8-7.3-17.7
			C372.2,181,383.4,169.8,397.2,169.8 M397.2,147.8c-25.9,0-47,21.1-47,47c0,12.6,4.9,24.4,13.8,33.2c8.9,8.9,20.7,13.8,33.2,13.8
			c25.9,0,47-21.1,47-47S423.1,147.8,397.2,147.8L397.2,147.8z"/>
	</g>
	<g>
		<path class="st0" d="M313.9,504c-6.6,0-13-1-19.3-2.8c-6.1,1.9-12.5,2.8-18.9,2.8H147.4c-16.7-0.1-32.6-6.3-44.8-17.6
			c-12.2-11.3-19.7-26.7-21-43.2L79,409.2c-0.3-4.4-0.2-8.7,0.3-13l1-8.4v-0.3l19.4-159.9c0-0.2,0.1-0.4,0.1-0.7l6.6-54.2
			c3.5-28.4,24.6-50.8,51.8-56.5V96.8c0-9.9,8.1-18,18-18h5.4v-9.1c-8.3,0.8-16.6,2.1-24.7,3.8c-2,0.4-4.1,0.6-6.1,0.6
			c-14.1,0-26.2-9.6-29.3-23.5c-3.6-16.1,6.6-32.2,22.7-35.8C165,10.3,190.7,8,220.7,8c43.4,0,86.2,4.8,107.9,7.7
			c14.8,2,26,14.7,26.1,29.6c0.1,8-3,15.6-8.7,21.3c-5.6,5.7-13.2,8.9-21.2,8.9c-1.5,0-2.8-0.1-4.1-0.3c-26.1-3.5-52.7-5.7-79.1-6.7
			v10.3h5.4c9.9,0,18,8.1,18,18v19.5c27.2,5.7,48.3,28.1,51.8,56.5l6.6,54.1c0.1,0.3,0.1,0.6,0.1,0.9l14.3,118
			c7.7,1.9,14.8,5.8,20.6,11.2c2.4-0.3,4.9-0.4,7.3-0.4c5.9,0,11.7,0.8,17.3,2.3c17.4,4.6,32,15.8,41.1,31.3
			c9.1,15.6,11.5,33.8,6.9,51.2c-7.8,29.6-34.6,50.2-65.2,50.2c-3.9,0-7.8-0.3-11.6-1C342.6,499.3,328.5,504,313.9,504z"/>
		<path class="st0" d="M220.7,19c42.9,0,84.8,4.7,106.4,7.6c9.4,1.3,16.4,9.3,16.5,18.7c0.1,10.5-8.4,19.1-18.9,19.1
			c-0.9,0-1.7,0-2.5-0.2c-30.4-4-61-6.4-91.7-7.2v32.7h16.4c3.9,0,7,3.1,7,7v29.1c26.7,1.3,48.6,21.7,51.9,48.2l6.6,54.5
			c0,0.1,0,0.2,0,0.3l15.4,126.5c10.4,0.4,20,5.3,26.5,13.4c3.7-0.8,7.6-1.2,11.4-1.2c4.9,0,9.8,0.6,14.5,1.9
			c30.2,8,48.1,38.9,40.1,69.1c-6.7,25.3-29.6,42-54.6,42c-4.8,0-9.7-0.6-14.5-1.9c-10.4,9.4-23.8,14.3-37.3,14.3
			c-6.5,0-13-1.1-19.3-3.4c-6,2.3-12.5,3.4-18.9,3.4H147.4c-28.7-0.1-52.5-22.2-54.8-50.8l-2.6-33.9c-0.3-3.6-0.2-7.3,0.3-10.9
			l1.1-9.1v-0.3l19.4-159.2c0-0.1,0.1-0.2,0.1-0.3l6.6-54.5c3.3-26.5,25.1-46.9,51.8-48.2V96.8c0-3.9,3.1-7,7-7h16.4v-32
			c-12.8,0.7-25.5,2.3-38,4.9c-1.3,0.3-2.6,0.4-3.8,0.4c-8.7,0-16.5-6-18.5-14.9c-2.3-10.2,4.1-20.4,14.4-22.7
			C168.8,20.7,195,19,220.7,19 M220.7-3c-30.8,0-57.3,2.4-78.8,7.1l0,0l0,0c-10.7,2.4-19.8,8.8-25.7,18c-5.9,9.2-7.8,20.2-5.4,30.9
			c2,9.1,7.2,17.4,14.5,23.2c6.9,5.5,15.5,8.6,24.3,8.9c-1.6,3.6-2.5,7.5-2.5,11.7v11.1c-27.4,9.3-48,33.5-51.7,63.5l-6.6,53.9
			c-0.1,0.3-0.1,0.6-0.1,1L69.4,385.5l-0.2,1.3v0.3l-0.9,7.7c-0.6,5-0.7,10.1-0.3,15.1l0,0l0,0l2.6,33.9l0,0l0,0
			c1.6,19.3,10.3,37.2,24.5,50.4c14.2,13.2,32.8,20.5,52.2,20.6l0,0h0h128.3c6.4,0,12.8-0.8,18.9-2.4c6.3,1.6,12.7,2.4,19.3,2.4
			c15.4,0,30.3-4.5,43-12.9c3,0.3,5.9,0.5,8.9,0.5c35.5,0,66.7-24,75.8-58.4c5.4-20.3,2.5-41.4-8-59.5
			c-10.5-18.1-27.5-31.1-47.8-36.4c-6.5-1.7-13.3-2.6-20.1-2.6c-1.2,0-2.4,0-3.7,0.1c-4.3-3.4-9.1-6.1-14.2-8.2l-13.5-111
			c0-0.4-0.1-0.8-0.2-1.2l-6.5-53.8c-3.7-30-24.2-54.3-51.7-63.6V96.8c0-5.7-1.7-11.1-4.6-15.6c16.1,1.2,32.1,2.8,47.9,4.9
			c1.8,0.2,3.6,0.4,5.5,0.4h0.1l0.1,0c11-0.1,21.2-4.4,28.9-12.2c7.7-7.8,11.9-18.1,11.8-29.1c-0.1-9.9-3.7-19.4-10.2-26.8
			c-6.5-7.4-15.5-12.2-25.3-13.5C308.1,1.9,264.7-3,220.7-3L220.7-3z"/>
	</g>
</g>
<g>
	<path d="M346,89.8c-17.1,0-31,13.9-31,31c0,17.1,13.9,31,31,31s31-13.9,31-31S363.1,89.8,346,89.8z M346,137.8c-9.4,0-17-7.6-17-17
		c0-9.4,7.6-17,17-17c9.4,0,17,7.6,17,17C363,130.2,355.4,137.8,346,137.8z"/>
	<path d="M397.2,169.8c-13.8,0-25,11.2-25,25c0,6.9,2.8,13.1,7.3,17.7s10.8,7.3,17.7,7.3c13.8,0,25-11.2,25-25
		S411,169.8,397.2,169.8z M397.2,205.8c-6.1,0-11-4.9-11-11c0-6.1,4.9-11,11-11c6.1,0,11,4.9,11,11
		C408.2,200.8,403.3,205.8,397.2,205.8z"/>
	<path d="M348.7,237c-10.5,0-19,8.5-19,19c0,10.5,8.5,19,19,19c10.5,0,19-8.5,19-19S359.2,237,348.7,237z M348.7,261
		c-2.8,0-5-2.2-5-5s2.2-5,5-5s5,2.2,5,5S351.4,261,348.7,261z"/>
	<path d="M380.2,369.5c-4.7-1.3-9.6-1.9-14.5-1.9c-3.8,0-7.6,0.4-11.4,1.2c-6.5-8.1-16.2-13-26.5-13.4l-15.4-126.5
		c0-0.1,0-0.2,0-0.3l-6.6-54.5c-3.3-26.5-25.1-46.9-51.9-48.2V96.8c0-3.9-3.1-7-7-7h-16.4V57.1c30.7,0.8,61.3,3.2,91.7,7.2
		c0.9,0.1,1.7,0.2,2.5,0.2c10.5-0.1,19-8.6,18.9-19.1c-0.1-9.5-7.1-17.5-16.5-18.7c-34.6-4.6-121.4-14-180.5-1
		C136.4,27.8,130,38,132.3,48.2c2.3,10.1,12.2,16.5,22.3,14.5c12.5-2.6,25.2-4.3,38-4.9v32h-16.4c-3.9,0-7,3.1-7,7v29.1
		c-26.7,1.3-48.6,21.7-51.8,48.2l-6.6,54.5c0,0.1,0,0.2,0,0.3L91.3,388.2v0.3l-1.1,9.1c-0.4,3.6-0.5,7.2-0.3,10.9l2.6,33.9
		c2.3,28.6,26.2,50.7,54.8,50.8h128.3c6.5,0,12.9-1.2,18.9-3.4c19.4,7.2,41.2,3,56.6-10.9c30.2,8,61.1-10,69.1-40.1
		C428.3,408.4,410.4,377.5,380.2,369.5z M151.6,49c-2.7,0.5-5.3-1.3-5.8-4c-0.2-1.2,0-2.4,0.6-3.5c0.7-1.2,1.9-2.1,3.3-2.4
		c56.9-12.4,141.8-3.3,175.7,1.3c2.8,0.4,4.7,2.9,4.3,5.6c-0.3,2.8-2.9,4.7-5.6,4.3C290.3,46,206,37,151.6,49z M216.6,57v32.8h-10
		V57.2C209.9,57.1,213.2,57,216.6,57z M183.2,103.8h56.8v22h-56.8V103.8z M131.2,175.8c2.5-20.6,20-36,40.7-36v0h79.3
		c20.7,0,38.2,15.5,40.7,36l5.7,47H125.5L131.2,175.8z M123.8,236.8h175.5l15.4,127.1l0,0.2l2.2,18H106.2L123.8,236.8z M275.7,479
		H147.4c-21.4-0.1-39.1-16.5-40.9-37.8l-2.6-33.9c-0.2-2.7-0.2-5.4,0.2-8.1l0.4-3.2h214.2l0.4,3.2c0.3,2.7,0.4,5.4,0.2,8.1
		l-2.6,33.9C314.9,462.5,297.1,478.9,275.7,479z M365.7,466.6c-4.8,0-9.5-0.8-14.1-2.4c-2.6-0.9-5.4-0.2-7.3,1.8
		c-8,8.4-19,13.1-30.6,13c-0.5,0-1-0.1-1.5-0.1c10.6-9.4,17.2-22.6,18.3-36.7l2.6-33.9c0.3-3.6,0.2-7.3-0.2-10.9l-1.1-9.1v-0.3
		l-2.3-18.6c6.6,1,12.4,4.9,15.7,10.7c1.6,2.8,5,4.2,8.1,3.2c4-1.2,8.1-1.9,12.3-1.9c23.5,0,42.5,19,42.5,42.5
		C408.2,447.6,389.2,466.6,365.7,466.6z"/>
	<path d="M147.3,176.6c3.5,1.7,7.7,0.2,9.3-3.2c0,0,0,0,0,0c2.9-5.9,8.8-9.6,15.3-9.6c3.9,0,7-3.1,7-7s-3.1-7-7-7
		c-11.9,0-22.7,6.8-27.9,17.5C142.3,170.7,143.8,174.9,147.3,176.6C147.3,176.6,147.3,176.6,147.3,176.6z"/>
	<path d="M269.2,303.6c-3-29.6-27.9-52.1-57.7-52.1c-0.9,0-1.7,0.1-2.5,0.1c-0.4,0-0.8-0.1-1.3-0.1c-0.6,0-1.3,0.1-1.9,0.3
		c-31.8,3.2-55,31.5-51.8,63.4c3.2,31.8,31.5,55,63.4,51.8C249.2,363.7,272.4,335.4,269.2,303.6z M252.3,325.9
		c-6.7,16.6-22.8,27.4-40.7,27.4h0c-24.3,0-43.9-19.7-43.9-43.9c0-23.2,18.1-42.4,41.3-43.8c3.1,0.6,5.4,3.3,5.4,6.5
		c0,2.2-1.8,3.9-3.9,3.9c-0.5,0-0.9-0.2-1.2-0.5c-2.8-2.7-7.2-2.6-9.9,0.1c-2.7,2.8-2.6,7.2,0.1,9.9c2.9,2.9,6.9,4.5,11,4.5
		c9.9,0,17.9-8,17.9-17.9c0-1.2-0.1-2.3-0.4-3.4C250.5,277.8,261.4,303.4,252.3,325.9z"/>
	<path d="M228.6,323.8c-3.7-1.1-7.6,1-8.7,4.7c-1.1,3.8-5.8,4.9-8.4,4.9s-7.2-1-8.4-4.9c-1.1-3.7-5-5.8-8.7-4.8s-5.8,5-4.8,8.7
		c0,0,0,0.1,0,0.1c4.7,12,18.3,17.9,30.3,13.2c6.1-2.4,10.9-7.2,13.2-13.2C234.4,328.8,232.3,324.9,228.6,323.8z"/>
	<path d="M244.7,301.1c-4.2-7.5-13.6-10.2-21.1-6.1c-2.6,1.4-4.7,3.5-6.1,6.1c-1.9,3.4-0.7,7.6,2.7,9.5c3.3,1.9,7.6,0.7,9.5-2.6
		c0.6-1,0.7-1,1.4-1s0.9,0,1.5,1c1.9,3.3,6.2,4.5,9.6,2.5C245.5,308.7,246.6,304.5,244.7,301.1L244.7,301.1z"/>
	<path d="M190.5,308.1c0.6-1,0.7-1,1.4-1s0.9,0,1.5,1c1.9,3.3,6.2,4.5,9.6,2.5c3.3-1.9,4.5-6.1,2.6-9.5c-4.2-7.5-13.6-10.2-21.1-6.1
		c-2.6,1.4-4.7,3.5-6.1,6.1c-1.9,3.4-0.7,7.6,2.7,9.5C184.4,312.5,188.6,311.4,190.5,308.1L190.5,308.1z"/>
	<path d="M358.7,404.3c-3.9,0-7,3.1-7,7s3.1,7,7,7c6.1,0,11,4.9,11,11c0,3.9,3.1,7,7,7s7-3.1,7-7
		C383.6,415.5,372.5,404.3,358.7,404.3z"/>
</g>
</svg>
