<svg xmlns="http://www.w3.org/2000/svg" width="33.38" height="35.699" viewBox="0 0 33.38 35.699">
  <g id="beer" transform="translate(-23.995 1)">
    <g id="Groupe_35" data-name="Groupe 35" transform="translate(26.634 6.725)">
      <g id="Groupe_37" data-name="Groupe 37">
        <path id="Tracé_21" data-name="Tracé 21" d="M45.312,428.538l-8.871-2.377-.4,1.5a1.423,1.423,0,0,0,1.091,1.676l3,.8,3,.8a1.422,1.422,0,0,0,1.783-.906Z" transform="translate(-35.997 -405.669)" fill="#fff"/>
        <path id="Tracé_22" data-name="Tracé 22" d="M42.95,287.992l8.871,2.377,2.526-9.426-8.871-2.377-2.526,9.426Zm7.407-3.067a1.769,1.769,0,1,1-1.251-2.167A1.769,1.769,0,0,1,50.357,284.925Z" transform="translate(-42.506 -267.5)" fill="#fff"/>
        <circle id="Ellipse_3" data-name="Ellipse 3" cx="1.769" cy="1.769" r="1.769" transform="translate(4.373 15.198)" fill="#fff"/>
        <path id="Tracé_23" data-name="Tracé 23" d="M82.5,192.083l8.871,2.377a4.223,4.223,0,0,0-1.12-4.075c.214-1.318.432-2.837.585-4.2H86.672c-.411.981-.816,2-1.167,2.931A4.222,4.222,0,0,0,82.5,192.083Z" transform="translate(-79.528 -181.017)" fill="#fff"/>
        <g id="Groupe_34" data-name="Groupe 34" transform="translate(7.144)">
          <path id="Tracé_24" data-name="Tracé 24" d="M147.857,110.46h4.162c.084-.753.149-1.459.182-2.059a.466.466,0,0,0,.569-.328l.372-1.39a.449.449,0,0,0-.317-.549l-3.077-.824c-.238-.064-.551.07-.549.317l-.372,1.39c-.128.221.082.5.328.569C148.758,108.373,148.3,109.391,147.857,110.46Z" transform="translate(-147.857 -105.295)" fill="#fff"/>
          <path id="Tracé_25" data-name="Tracé 25" d="M282.094,108.4c.033.6.1,1.306.182,2.059h4.162c-.448-1.069-.9-2.088-1.3-2.875.247-.066.456-.348.328-.569l-.372-1.39c0-.246-.311-.381-.549-.317l-3.077.824a.449.449,0,0,0-.317.549l.372,1.39A.466.466,0,0,0,282.094,108.4Z" transform="translate(-272.626 -105.294)" fill="#fff"/>
        </g>
      </g>
      <g id="Groupe_36" data-name="Groupe 36" transform="translate(16.133 5.166)">
        <path id="Tracé_26" data-name="Tracé 26" d="M293.43,186.182h-4.162c.153,1.365.371,2.884.585,4.2a4.223,4.223,0,0,0-1.12,4.075l8.871-2.377a4.222,4.222,0,0,0-3.007-2.969C294.245,188.186,293.84,187.163,293.43,186.182Z" transform="translate(-288.606 -186.182)" fill="#fff"/>
        <path id="Tracé_27" data-name="Tracé 27" d="M299.466,278.566l-8.871,2.377,2.526,9.426,8.871-2.377-2.526-9.426Zm-4.881,6.359a1.769,1.769,0,1,1,2.167,1.251A1.769,1.769,0,0,1,294.584,284.925Z" transform="translate(-290.468 -272.666)" fill="#fff"/>
        <circle id="Ellipse_4" data-name="Ellipse 4" cx="1.769" cy="1.769" r="1.769" transform="translate(4.056 10.032)" fill="#fff"/>
        <path id="Tracé_28" data-name="Tracé 28" d="M339.015,426.161l-8.871,2.377.4,1.5a1.423,1.423,0,0,0,1.783.906l3-.8,3-.8a1.422,1.422,0,0,0,1.091-1.676Z" transform="translate(-327.491 -410.835)" fill="#fff"/>
      </g>
    </g>
    <g id="Groupe_38" data-name="Groupe 38" transform="translate(25.995 6.086)">
      <g id="Tracé_32" data-name="Tracé 32" transform="translate(-255.474 -95.295)">
        <path d="M 276.6603393554688 122.9078521728516 C 276.1612243652344 122.9078521728516 275.6650695800781 122.7897491455078 275.2254943847656 122.5663223266602 C 274.4678649902344 122.1814270019531 273.9326477050781 121.5296173095703 273.7185974121094 120.7310562133789 L 270.789794921875 109.8006286621094 C 270.3033142089844 107.9850158691406 270.8639221191406 105.9390640258789 271.74560546875 104.7477722167969 C 271.5571899414063 103.5254135131836 271.3971557617188 102.3369827270508 271.2796630859375 101.2857818603516 C 271.2789001464844 101.2795257568359 271.2781982421875 101.2734146118164 271.2775573730469 101.2673645019531 C 271.2321472167969 100.8598785400391 271.1935119628906 100.4760360717773 271.162109375 100.1207962036133 C 270.881103515625 99.85612487792969 270.6755065917969 99.5167236328125 270.5736083984375 99.13687896728516 L 270.2012023925781 97.74656677246094 C 270.0570373535156 97.20897674560547 270.1311950683594 96.64669036865234 270.4100952148438 96.16355895996094 C 270.6888122558594 95.68067932128906 271.1385192871094 95.33528137207031 271.6763916015625 95.19105529785156 L 274.7534790039063 94.36663818359375 C 274.9308776855469 94.31907653808594 275.1153869628906 94.29495239257813 275.3017272949219 94.29495239257813 C 275.7777709960938 94.29495239257813 276.2424011230469 94.45207977294922 276.6099853515625 94.73738098144531 C 277.0064697265625 95.04480743408203 277.2638549804688 95.47685241699219 277.3409118652344 95.96112823486328 L 277.650390625 97.115966796875 C 277.8085021972656 97.5313720703125 277.8179626464844 97.98286437988281 277.6786193847656 98.40995025634766 C 277.9562072753906 99.00787353515625 278.2582702636719 99.69621276855469 278.5794982910156 100.4630279541016 L 278.5805358886719 100.4654769897461 L 278.5808715820313 100.4662704467773 C 278.5813293457031 100.4673919677734 278.5818176269531 100.4685287475586 278.582275390625 100.4696502685547 L 278.5835571289063 100.4726867675781 L 278.5835876464844 100.4727478027344 C 278.8778686523438 101.1755218505859 279.1759948730469 101.915283203125 279.4721374511719 102.6774597167969 C 280.831298828125 103.2682342529297 282.3398132324219 104.7597122192383 282.8263244628906 106.575439453125 L 285.7551879882813 117.505859375 C 285.96923828125 118.304557800293 285.8315124511719 119.1367721557617 285.367431640625 119.8491592407227 C 284.9398498535156 120.5058212280273 284.2784118652344 120.9816513061523 283.5050659179688 121.1888427734375 L 277.5085144042969 122.7956085205078 C 277.2310180664063 122.8700561523438 276.9455261230469 122.9078521728516 276.6603393554688 122.9078521728516 Z M 274.3797912597656 110.53515625 L 276.0573425292969 116.7957763671875 L 281.762451171875 115.2670745849609 L 280.0849304199219 109.0064392089844 L 274.3797912597656 110.53515625 Z M 274.3128051757813 106.7785797119141 C 274.2481384277344 106.8814926147461 274.1737976074219 107.032585144043 274.1054382324219 107.2158813476563 L 278.6631469726563 105.9946212768555 C 278.4476623535156 105.8165969848633 278.2542724609375 105.7014694213867 278.1461181640625 105.6668930053711 C 277.4982604980469 105.6314697265625 276.935791015625 105.2217330932617 276.7044982910156 104.61181640625 C 276.4632263183594 103.9754867553711 276.2176818847656 103.3477020263672 275.9717407226563 102.7381591796875 L 274.7644958496094 102.7381591796875 C 274.8002624511719 102.9985275268555 274.8378295898438 103.2628860473633 274.8770446777344 103.5306091308594 C 275.3763122558594 103.7067184448242 275.7737121582031 104.119743347168 275.9164733886719 104.6524200439453 C 276.0298156738281 105.0751266479492 275.9717102050781 105.5167770385742 275.7528076171875 105.8958969116211 C 275.533935546875 106.2749862670898 275.1805419921875 106.546142578125 274.7576904296875 106.6593856811523 L 274.3128051757813 106.7785797119141 Z M 274.3958740234375 99.46086120605469 L 274.5516052246094 99.46086120605469 C 274.4889526367188 99.32959747314453 274.4282531738281 99.20496368408203 274.3696899414063 99.08718872070313 C 274.3770751953125 99.20557403564453 274.3858032226563 99.33023834228516 274.3958740234375 99.46086120605469 Z" stroke="none"/>
        <path d="M 276.6603393554688 121.9078521728516 C 276.8565368652344 121.9078521728516 277.0547180175781 121.8819885253906 277.2496948242188 121.8296813964844 L 283.2462768554688 120.222900390625 C 283.7809753417969 120.0796508789063 284.2366943359375 119.7530517578125 284.529541015625 119.3033218383789 C 284.836669921875 118.8318557739258 284.9288330078125 118.2854995727539 284.7892761230469 117.7646789550781 L 281.8604125976563 106.8342590332031 C 281.4178466796875 105.1825866699219 279.8963928222656 103.7861175537109 278.7032775878906 103.4625778198242 C 278.353271484375 102.5496292114258 277.9989624023438 101.6654205322266 277.6585083007813 100.8526077270508 C 277.6580505371094 100.8515319824219 277.6575927734375 100.8505020141602 277.6571655273438 100.8494110107422 C 277.2673950195313 99.91896820068359 276.8960876464844 99.08265686035156 276.5703125 98.40460205078125 C 276.6223449707031 98.33377838134766 276.6661071777344 98.2572021484375 276.6995544433594 98.17647552490234 C 276.8013000488281 97.93104553222656 276.8004150390625 97.66549682617188 276.7000122070313 97.43276977539063 L 276.3591003417969 96.16065216064453 C 276.3311767578125 95.91355133056641 276.2029418945313 95.68714904785156 275.9968566894531 95.52735900878906 C 275.8019104003906 95.37604522705078 275.5519104003906 95.29495239257813 275.3017272949219 95.29495239257813 C 275.2041931152344 95.29495239257813 275.1066284179688 95.30727386474609 275.0122680664063 95.33256530761719 L 271.9353637695313 96.15693664550781 C 271.655517578125 96.23197937011719 271.42138671875 96.41188812255859 271.2761535644531 96.66350555419922 C 271.130859375 96.91520690917969 271.0921020507813 97.20796203613281 271.1671447753906 97.48783111572266 L 271.5394592285156 98.87777709960938 C 271.6253051757813 99.19780731201172 271.8446044921875 99.44657135009766 272.1211547851563 99.58196258544922 C 272.1565246582031 100.05078125 272.2073669433594 100.5822677612305 272.2717895507813 101.1601181030273 C 272.2721862792969 101.1642074584961 272.2727661132813 101.1682891845703 272.273193359375 101.1723785400391 C 272.402099609375 102.3258514404297 272.5845642089844 103.6613159179688 272.8039855957031 105.0432281494141 C 271.9326171875 105.9201126098633 271.3132019042969 107.8902816772461 271.7557373046875 109.5418090820313 L 274.6845092773438 120.47216796875 C 274.8240966796875 120.9929809570313 275.1771545410156 121.4201202392578 275.6786193847656 121.6748657226563 C 275.9825439453125 121.8293609619141 276.318603515625 121.9078521728516 276.6603393554688 121.9078521728516 M 283.3178100585938 117.2078399658203 L 283.5556030273438 118.0952453613281 C 283.6000366210938 118.2612915039063 283.56591796875 118.4428558349609 283.4594116210938 118.6064224243164 C 283.3387756347656 118.7916259765625 283.1458435058594 118.9275970458984 282.9160461425781 118.9891662597656 L 276.91943359375 120.5959396362305 C 276.8332214355469 120.6190338134766 276.7462463378906 120.6304779052734 276.6608581542969 120.6304779052734 C 276.5186157226563 120.6304779052734 276.3807067871094 120.5987319946289 276.257568359375 120.5361557006836 C 276.0834655761719 120.4477081298828 275.963134765625 120.3075866699219 275.9186096191406 120.1415405273438 L 275.6808471679688 119.2542114257813 L 283.3178100585938 117.2078399658203 M 280.7920227050781 107.7816925048828 L 282.9871826171875 115.9741668701172 L 275.3502197265625 118.0205154418945 L 273.1550598144531 109.8280563354492 L 280.7920227050781 107.7816925048828 M 274.3341064453125 104.437744140625 C 274.2793884277344 104.437744140625 274.2237548828125 104.4448394775391 274.1683959960938 104.4597015380859 L 274.0122680664063 104.5015258789063 C 273.8619079589844 103.5330810546875 273.7310791015625 102.5955352783203 273.625732421875 101.7381591796875 L 276.643798828125 101.7381591796875 C 276.9702758789063 102.5297012329102 277.3076782226563 103.3820419311523 277.6395263671875 104.2572479248047 C 277.7315063476563 104.4998092651367 277.9611511230469 104.6626586914063 278.2205810546875 104.6691818237305 C 278.717041015625 104.6817016601563 279.8407592773438 105.4727325439453 280.39453125 106.5659561157227 L 272.8915405273438 108.5764312744141 C 272.82763671875 107.4095458984375 273.3497924804688 106.2223052978516 273.7659301757813 105.8898315429688 L 274.4989624023438 105.6934356689453 C 274.8396911621094 105.602180480957 275.0419006347656 105.2519454956055 274.9505615234375 104.9112854003906 C 274.8741149902344 104.6260223388672 274.6159973144531 104.437744140625 274.3341064453125 104.437744140625 M 276.1031494140625 100.4608612060547 L 273.48193359375 100.4608612060547 C 273.4268188476563 99.91532897949219 273.3863830566406 99.42414093017578 273.3631896972656 99.00608062744141 C 273.3621215820313 98.98673248291016 273.35986328125 98.96726226806641 273.3569946289063 98.94777679443359 C 273.3566284179688 98.94515991210938 273.3565063476563 98.94253540039063 273.3561096191406 98.93998718261719 C 273.3554077148438 98.93576812744141 273.354248046875 98.93154907226563 273.3534240722656 98.92733764648438 C 273.3500366210938 98.90856170654297 273.3461303710938 98.88991546630859 273.3411560058594 98.87171173095703 C 273.3364868164063 98.85459899902344 273.3312072753906 98.83786010742188 273.3251953125 98.82144927978516 C 273.3225708007813 98.81417083740234 273.3193969726563 98.80715179443359 273.3164672851563 98.7999267578125 C 273.3119201660156 98.78874969482422 273.3072509765625 98.77757263183594 273.3021545410156 98.76679229736328 C 273.2989501953125 98.76007080078125 273.2954406738281 98.75350189208984 273.2919921875 98.74685668945313 C 273.2862548828125 98.73580932617188 273.2803039550781 98.72489166259766 273.2740478515625 98.71421813964844 C 273.2705383300781 98.70833587646484 273.2669677734375 98.70259857177734 273.2633056640625 98.69684600830078 C 273.2561645507813 98.6856689453125 273.2486267089844 98.67475128173828 273.2407836914063 98.66408538818359 C 273.2371826171875 98.65922546386719 273.2337951660156 98.65431213378906 273.2301025390625 98.64958953857422 C 273.2210388183594 98.63790130615234 273.2115173339844 98.62665557861328 273.2017517089844 98.61567687988281 C 273.1986694335938 98.61228942871094 273.1958618164063 98.60877990722656 273.1928100585938 98.60544586181641 C 273.1799621582031 98.59172821044922 273.1666259765625 98.57850646972656 273.1527099609375 98.56598663330078 C 273.1479187011719 98.5616455078125 273.1427307128906 98.55774688720703 273.1378173828125 98.55353546142578 C 273.1287536621094 98.54586791992188 273.1197509765625 98.53826904296875 273.1102294921875 98.53118133544922 C 273.102294921875 98.52511596679688 273.093994140625 98.51956176757813 273.0857543945313 98.51387023925781 C 273.0790710449219 98.50933837890625 273.0724182128906 98.50480651855469 273.0655822753906 98.50052642822266 C 273.0560302734375 98.49446105957031 273.0461730957031 98.4886474609375 273.0361938476563 98.48308563232422 C 273.0307006835938 98.48002624511719 273.025146484375 98.47714996337891 273.0195922851563 98.47421264648438 C 273.0084228515625 98.46839904785156 272.9971923828125 98.46272277832031 272.9856872558594 98.45754241943359 C 272.982177734375 98.45600891113281 272.9786682128906 98.45468139648438 272.9751586914063 98.45314025878906 C 272.9365234375 98.43666076660156 272.8960876464844 98.42401123046875 272.8541259765625 98.41545867919922 C 272.8464660644531 98.41387176513672 272.8388061523438 98.41220092773438 272.8309936523438 98.41085815429688 C 272.8215026855469 98.40933227539063 272.8118591308594 98.40805053710938 272.8022155761719 98.40689849853516 C 272.7912292480469 98.40555572509766 272.7802429199219 98.404541015625 272.7691345214844 98.40377044677734 C 272.7615966796875 98.40325927734375 272.7540588378906 98.40274810791016 272.7463989257813 98.40249633789063 C 272.7423706054688 98.40236663818359 272.7384643554688 98.40191650390625 272.7344970703125 98.40185546875 L 272.4503784179688 97.3411865234375 L 275.1588745117188 96.61567687988281 L 275.4431457519531 97.67623138427734 C 275.4390563964844 97.6787109375 275.4351806640625 97.6815185546875 275.43115234375 97.68408203125 C 275.4266052246094 97.68695068359375 275.4221496582031 97.68988800048828 275.4176635742188 97.69282531738281 C 275.405517578125 97.70088195800781 275.3937377929688 97.70931243896484 275.3822021484375 97.71804809570313 C 275.3773193359375 97.72188568115234 275.372314453125 97.7255859375 275.3674926757813 97.7294921875 C 275.3566284179688 97.73835754394531 275.3461303710938 97.74761962890625 275.3359375 97.75714111328125 C 275.3316955566406 97.76108551025391 275.3272399902344 97.76486206054688 275.3230895996094 97.76889038085938 C 275.3099975585938 97.78179168701172 275.29736328125 97.79527282714844 275.285400390625 97.80918884277344 C 275.28076171875 97.81462097167969 275.2765197753906 97.82042694091797 275.2720642089844 97.8260498046875 C 275.2647094726563 97.83523559570313 275.2574462890625 97.84450531005859 275.2506103515625 97.85401916503906 C 275.2457580566406 97.86080169677734 275.2412719726563 97.86775207519531 275.2366943359375 97.87477874755859 C 275.2306823730469 97.8839111328125 275.224853515625 97.89311218261719 275.2193603515625 97.90255737304688 C 275.21533203125 97.90938568115234 275.2114562988281 97.91635131835938 275.2076721191406 97.92337799072266 C 275.2019348144531 97.93405151367188 275.1967163085938 97.94483947753906 275.1915893554688 97.95577239990234 C 275.1887817382813 97.96176147460938 275.1858520507813 97.96769714355469 275.1832885742188 97.97377014160156 C 275.1765747070313 97.98947906494141 275.1704406738281 98.00550842285156 275.1649780273438 98.021728515625 C 275.1644592285156 98.02320098876953 275.163818359375 98.02468109130859 275.1633605957031 98.02613830566406 C 275.1572265625 98.04479217529297 275.1520690917969 98.06375122070313 275.1476440429688 98.08291625976563 C 275.1470031738281 98.08586120605469 275.1465759277344 98.08879089355469 275.14599609375 98.09172821044922 C 275.1426086425781 98.10743713378906 275.1397094726563 98.12333679199219 275.1375732421875 98.13938140869141 C 275.1368408203125 98.14480590820313 275.1364135742188 98.15029144287109 275.1357727050781 98.15571594238281 C 275.1343078613281 98.16919708251953 275.1332092285156 98.1827392578125 275.132568359375 98.19639587402344 C 275.1322631835938 98.20304870605469 275.132080078125 98.20974731445313 275.1319274902344 98.21646118164063 C 275.1318054199219 98.22878265380859 275.1321411132813 98.24111175537109 275.1326904296875 98.25355529785156 C 275.1330261230469 98.26116180419922 275.1333618164063 98.26863098144531 275.1338500976563 98.27622985839844 C 275.1348266601563 98.28791809082031 275.1364135742188 98.29954528808594 275.1380004882813 98.31122589111328 C 275.1390991210938 98.31915283203125 275.1398620605469 98.32712554931641 275.1413269042969 98.33499145507813 C 275.1443176269531 98.35198211669922 275.1480407714844 98.36891174316406 275.1524963378906 98.38582611083984 C 275.1571044921875 98.40357971191406 275.162841796875 98.42119598388672 275.1691284179688 98.43870544433594 C 275.1707763671875 98.44336700439453 275.1720581054688 98.44828796386719 275.1737670898438 98.45294189453125 C 275.1745300292969 98.45492553710938 275.175537109375 98.45684051513672 275.1763305664063 98.45875549316406 C 275.1837158203125 98.4776611328125 275.1918334960938 98.49613189697266 275.200927734375 98.51393890380859 C 275.4657592773438 99.03782653808594 275.7730102539063 99.7022705078125 276.1031494140625 100.4608612060547 M 276.6603393554688 123.9078521728516 C 276.0044860839844 123.9078521728516 275.3516235351563 123.7522125244141 274.7723693847656 123.4577560424805 C 273.7585754394531 122.942741394043 273.0411682128906 122.0662460327148 272.752685546875 120.9899368286133 L 269.8238830566406 110.0594482421875 C 269.4488525390625 108.659797668457 269.63134765625 107.3527526855469 269.8504638671875 106.5027389526367 C 270.0404052734375 105.7659606933594 270.3314208984375 105.0840682983398 270.6973266601563 104.5059661865234 C 270.5328674316406 103.41015625 270.3923950195313 102.3498611450195 270.2861022949219 101.3993148803711 C 270.2852783203125 101.3922348022461 270.2844543457031 101.3851852416992 270.28369140625 101.3781433105469 C 270.2515563964844 101.0897674560547 270.2227478027344 100.8127822875977 270.1973876953125 100.5487899780273 C 269.9247436523438 100.2138977050781 269.7221069335938 99.82222747802734 269.6077575683594 99.39596557617188 L 269.2352600097656 98.00530242919922 C 269.02197265625 97.20993804931641 269.131591796875 96.37812042236328 269.5440368652344 95.66361236572266 C 269.9562377929688 94.94945526123047 270.6215515136719 94.43857574462891 271.4173889160156 94.22518157958984 L 274.4946899414063 93.40071105957031 C 274.7564392089844 93.33055114746094 275.0280456542969 93.29495239257813 275.3017272949219 93.29495239257813 C 275.9986572265625 93.29495239257813 276.6809997558594 93.52664947509766 277.2230834960938 93.94738006591797 C 277.8071594238281 94.40023803710938 278.1917724609375 95.03439331054688 278.319091796875 95.74803161621094 L 278.6043090820313 96.81230926513672 C 278.7781066894531 97.2952880859375 278.8208923339844 97.80757141113281 278.7325439453125 98.30864715576172 C 278.973388671875 98.83823394775391 279.2301330566406 99.42813873291016 279.4997863769531 100.0717544555664 L 279.4999389648438 100.0720672607422 L 279.5032348632813 100.0799407958984 C 279.504638671875 100.0832901000977 279.5060119628906 100.0866165161133 279.5074157714844 100.089973449707 L 279.5099487304688 100.0959777832031 L 279.510009765625 100.0961303710938 C 279.7582092285156 100.6890640258789 280.0090942382813 101.3079223632813 280.2590942382813 101.9438781738281 C 280.8650512695313 102.2615432739258 281.4579772949219 102.70654296875 281.9908447265625 103.249626159668 C 282.6056213378906 103.8761672973633 283.4172058105469 104.9168472290039 283.7922668457031 106.3166122436523 L 286.7211303710938 117.2470321655273 C 287.0096130371094 118.323600769043 286.826416015625 119.4415664672852 286.205322265625 120.3949966430664 C 285.6430053710938 121.2585525512695 284.77587890625 121.8836364746094 283.7638244628906 122.1547698974609 L 277.767333984375 123.7615280151367 C 277.4056396484375 123.8585662841797 277.0329895019531 123.9078521728516 276.6603393554688 123.9078521728516 Z M 275.6045532226563 111.2422637939453 L 276.7644348144531 115.5710220336914 L 280.5376892089844 114.5599594116211 L 279.3778076171875 110.2311935424805 L 275.6045532226563 111.2422637939453 Z" stroke="none" fill="#fff"/>
      </g>
      <g id="Tracé_29" data-name="Tracé 29" transform="translate(-25.995 -95.295)">
        <path d="M 34.18691253662109 122.9075317382813 C 33.90219116210938 122.9075317382813 33.61686325073242 122.8697814941406 33.33882141113281 122.7953186035156 L 27.34214210510254 121.1885070800781 C 25.67703247070313 120.7423858642578 24.66772270202637 119.0902404785156 25.09224319458008 117.5055770874023 L 28.02090263366699 106.5750579833984 C 28.50752639770508 104.7594528198242 30.01607322692871 103.2679748535156 31.37516403198242 102.677116394043 C 31.67191314697266 101.9133529663086 31.97097015380859 101.1714019775391 32.26646423339844 100.4658966064453 L 32.27010345458984 100.4571990966797 L 32.2707633972168 100.455696105957 C 32.59075546264648 99.69202423095703 32.89178848266602 99.00609588623047 33.16864013671875 98.40968322753906 C 33.02924728393555 97.98249053955078 33.03872299194336 97.53094482421875 33.19686508178711 97.11553192138672 L 33.50627517700195 95.96076965332031 C 33.58330535888672 95.47644805908203 33.84072113037109 95.04437255859375 34.23766326904297 94.73661804199219 C 34.60501098632813 94.45160675048828 35.06960296630859 94.29454040527344 35.54560089111328 94.29454040527344 C 35.73188400268555 94.29454040527344 35.91630172729492 94.31864929199219 36.09375381469727 94.36618804931641 L 39.17052459716797 95.19062805175781 C 40.28162384033203 95.48836517333984 40.94362258911133 96.63463592529297 40.64626312255859 97.74586486816406 L 40.27371215820313 99.1361083984375 C 40.17179107666016 99.51606750488281 39.96619415283203 99.85552978515625 39.68519973754883 100.1202621459961 C 39.65371322631836 100.4760665893555 39.61501693725586 100.8601989746094 39.5695686340332 101.2677230834961 C 39.56892776489258 101.2737197875977 39.5682487487793 101.2796783447266 39.56753540039063 101.2856216430664 C 39.44997024536133 102.3371353149414 39.28993606567383 103.5254287719727 39.10159301757813 104.7473983764648 C 39.98326873779297 105.9387435913086 40.54391860961914 107.9847259521484 40.05740356445313 109.8002548217773 L 37.56575393676758 119.0992126464844 L 37.56575393676758 119.1525192260742 L 37.51809692382813 119.2770767211914 L 37.12862396240234 120.7306518554688 C 36.9146614074707 121.5291442871094 36.37947082519531 122.1809692382813 35.62165451049805 122.566047668457 C 35.18195343017578 122.7894592285156 34.68584442138672 122.9075317382813 34.18691253662109 122.9075317382813 Z M 29.08501243591309 115.2666015625 L 34.79018402099609 116.7953186035156 L 36.46770477294922 110.5347671508789 L 30.7625789642334 109.0060501098633 L 29.08501243591309 115.2666015625 Z M 32.18439865112305 105.9941787719727 L 36.74213790893555 107.2154541015625 C 36.67378997802734 107.0321655273438 36.59945297241211 106.8810729980469 36.5348014831543 106.7781600952148 L 36.08977127075195 106.6589050292969 C 35.21711349487305 106.4251480102539 34.69728088378906 105.5248794555664 34.93107223510742 104.6520843505859 C 35.07377624511719 104.1193237304688 35.47124099731445 103.7062225341797 35.9705924987793 103.5301208496094 C 36.00984191894531 103.2622985839844 36.04738998413086 102.9979400634766 36.08314514160156 102.7377014160156 L 34.87590789794922 102.7377014160156 C 34.63038635253906 103.3462066650391 34.38486480712891 103.9739608764648 34.14313125610352 104.6113891601563 C 33.91180038452148 105.2213363647461 33.34937286376953 105.6310882568359 32.70143508911133 105.6664962768555 C 32.59326171875 105.7010650634766 32.39989471435547 105.816162109375 32.18439865112305 105.9941787719727 Z M 36.29569625854492 99.46041107177734 L 36.45149993896484 99.46041107177734 C 36.4615592956543 99.32987213134766 36.47029495239258 99.20513916015625 36.47768020629883 99.08656311035156 C 36.41904449462891 99.20448303222656 36.35836410522461 99.32914733886719 36.29569625854492 99.46041107177734 Z" stroke="none"/>
        <path d="M 35.54560852050781 95.29454040527344 C 35.29540252685547 95.29453277587891 35.04540252685547 95.3756103515625 34.85040283203125 95.52690124511719 C 34.64430999755859 95.68669128417969 34.5160026550293 95.9130859375 34.48810195922852 96.16024780273438 L 34.14724349975586 97.43236541748047 C 34.04678344726563 97.66510009765625 34.04596328735352 97.93058776855469 34.14763259887695 98.17601776123047 C 34.18109130859375 98.25680541992188 34.2248420715332 98.33332061767578 34.27696228027344 98.40420532226563 C 33.95125198364258 99.08232116699219 33.57993316650391 99.91864013671875 33.19016265869141 100.8490753173828 C 33.18972396850586 100.8501815795898 33.18927383422852 100.8511962890625 33.18882369995117 100.8522186279297 C 32.84836196899414 101.6650848388672 32.49404144287109 102.5492401123047 32.14406204223633 103.4621887207031 C 30.95093154907227 103.7858505249023 29.42948150634766 105.1823272705078 28.98683166503906 106.833869934082 L 26.05818176269531 117.7643508911133 C 25.77634429931641 118.8163986206055 26.46845245361328 119.9191589355469 27.6009635925293 120.2225799560547 L 33.59750366210938 121.829345703125 C 33.79254150390625 121.881591796875 33.99065399169922 121.9075317382813 34.18691253662109 121.9075317382813 C 34.52865219116211 121.9075317382813 34.86471557617188 121.828971862793 35.16864013671875 121.6745452880859 C 35.67011260986328 121.4197158813477 36.02315521240234 120.9925994873047 36.16269302368164 120.4718399047852 L 36.5655632019043 118.9682693481445 C 36.56562042236328 118.9680786132813 36.56575012207031 118.9678192138672 36.56575012207031 118.9676284790039 C 36.56581115722656 118.9674377441406 36.56581115722656 118.9672470092773 36.56588363647461 118.9670562744141 L 39.09148406982422 109.5414199829102 C 39.53406524658203 107.8898162841797 38.91457366943359 105.9197692871094 38.04320526123047 105.042839050293 C 38.26270294189453 103.6604843139648 38.44523239135742 102.3244247436523 38.57417297363281 101.1705780029297 C 38.57455444335938 101.1672592163086 38.57500457763672 101.1639404296875 38.57532501220703 101.1605453491211 C 38.63982391357422 100.5823745727539 38.69072341918945 100.0505752563477 38.72617340087891 99.58149719238281 C 39.00264358520508 99.44603729248047 39.22195434570313 99.19728088378906 39.30779266357422 98.87725830078125 L 39.68025207519531 97.48736572265625 C 39.83512115478516 96.90861511230469 39.49038314819336 96.31161499023438 38.91170501708984 96.15654754638672 L 35.83494186401367 95.33211517333984 C 35.74064254760742 95.30685424804688 35.64309692382813 95.29454040527344 35.54560852050781 95.29454040527344 M 37.36547088623047 100.4604110717773 L 34.74420166015625 100.4604110717773 C 35.07438278198242 99.70162963867188 35.38176345825195 99.03691864013672 35.64660263061523 98.51296997070313 C 35.65497207641602 98.49636840820313 35.66244506835938 98.4791259765625 35.66941070556641 98.46163177490234 C 35.67062377929688 98.45849609375 35.67228317260742 98.45542907714844 35.67349243164063 98.45230102539063 C 35.67477416992188 98.44884490966797 35.67566299438477 98.44520568847656 35.67694091796875 98.44176483154297 C 35.68397521972656 98.42234802246094 35.69010162353516 98.40280914306641 35.69521331787109 98.38306427001953 C 35.69936370849609 98.36690521240234 35.70306396484375 98.35068511962891 35.70587158203125 98.33454132080078 C 35.70728302001953 98.32661437988281 35.70804214477539 98.31869506835938 35.70913314819336 98.31077575683594 C 35.71072387695313 98.29902648925781 35.71232223510742 98.28733825683594 35.71322250366211 98.27565002441406 C 35.71385192871094 98.26818084716797 35.714111328125 98.26071166992188 35.71443176269531 98.25323486328125 C 35.71500396728516 98.24071502685547 35.71532440185547 98.228271484375 35.71513366699219 98.21588134765625 C 35.71500396728516 98.209228515625 35.71488189697266 98.20259094238281 35.71456146240234 98.19601440429688 C 35.71398162841797 98.18222045898438 35.71283340454102 98.16854858398438 35.71136474609375 98.15494537353516 C 35.71079254150391 98.14963531494141 35.71028137207031 98.14434814453125 35.7095832824707 98.13904571533203 C 35.70740509033203 98.12275695800781 35.70453262329102 98.10660552978516 35.70108032226563 98.090576171875 C 35.70051193237305 98.087890625 35.70012283325195 98.08528137207031 35.69955444335938 98.08258819580078 C 35.69514465332031 98.06330108642578 35.68990325927734 98.04426574707031 35.68377304077148 98.02555847167969 C 35.68339538574219 98.02440643310547 35.68294525146484 98.0233154296875 35.68256378173828 98.02222442626953 C 35.6770133972168 98.00563049316406 35.67068481445313 97.98921966552734 35.66378021240234 97.97319030761719 C 35.66123199462891 97.96731567382813 35.65842437744141 97.96155548095703 35.65574264526367 97.95574951171875 C 35.65056228637695 97.944580078125 35.64520263671875 97.93352508544922 35.63933181762695 97.92266845703125 C 35.63568115234375 97.91582489013672 35.63185119628906 97.90914154052734 35.62796020507813 97.90242767333984 C 35.62233352661133 97.89279174804688 35.61640167236328 97.88333129882813 35.61026000976563 97.87393951416016 C 35.60586547851563 97.86716461181641 35.6014518737793 97.86039733886719 35.59679412841797 97.853759765625 C 35.58976364135742 97.84385681152344 35.58223342895508 97.83433532714844 35.57463073730469 97.8248291015625 C 35.5704231262207 97.81952667236328 35.56645202636719 97.81402587890625 35.56199264526367 97.80886077880859 C 35.54998016357422 97.79481506347656 35.53727340698242 97.78126525878906 35.52405548095703 97.768310546875 C 35.52002334594727 97.76435089111328 35.51575469970703 97.76076507568359 35.51159286499023 97.75693511962891 C 35.50125122070313 97.74729919433594 35.49065399169922 97.73790740966797 35.4796028137207 97.72890472412109 C 35.47487258911133 97.72507476806641 35.46995544433594 97.72136688232422 35.46510314941406 97.71766662597656 C 35.45354461669922 97.70878601074219 35.4416618347168 97.70035552978516 35.42940521240234 97.69224548339844 C 35.42499542236328 97.68937683105469 35.420654296875 97.68642425537109 35.41612243652344 97.68362426757813 C 35.41209411621094 97.68107604980469 35.408203125 97.67819976806641 35.40411376953125 97.67576599121094 L 35.68856048583984 96.61522674560547 L 38.39701080322266 97.34091949462891 L 38.11281204223633 98.40158843994141 C 38.10776519775391 98.40165710449219 38.102783203125 98.40222930908203 38.09774017333984 98.40242004394531 C 38.09300994873047 98.40254974365234 38.08841323852539 98.40287017822266 38.08375549316406 98.40317535400391 C 38.06823348999023 98.40414428710938 38.05284118652344 98.40560913085938 38.03758239746094 98.40766143798828 C 38.03227996826172 98.40835571289063 38.02704238891602 98.40899658203125 38.02180480957031 98.40982818603516 C 38.00654220581055 98.41225433349609 37.99147033691406 98.41532135009766 37.97646331787109 98.41883850097656 C 37.97212219238281 98.41984558105469 37.96764373779297 98.42063140869141 37.96330261230469 98.42176818847656 C 37.94497299194336 98.42649841308594 37.92690277099609 98.43193054199219 37.90915298461914 98.43824768066406 C 37.90340423583984 98.44028472900391 37.89784240722656 98.44278717041016 37.89209365844727 98.44496154785156 C 37.88015365600586 98.44961547851563 37.86827087402344 98.45440673828125 37.85665130615234 98.45970916748047 C 37.84943389892578 98.46302795410156 37.84240341186523 98.46660614013672 37.83538055419922 98.47018432617188 C 37.82535552978516 98.47522735595703 37.81552124023438 98.48046112060547 37.80575180053711 98.48601531982422 C 37.79892349243164 98.48992156982422 37.79208374023438 98.49393463134766 37.78536987304688 98.49808502197266 C 37.77522277832031 98.50434875488281 37.7653923034668 98.51105499267578 37.755615234375 98.51787567138672 C 37.75 98.5218505859375 37.74431228637695 98.52561950683594 37.73882293701172 98.52976989746094 C 37.72585296630859 98.53947448730469 37.71334075927734 98.54969024658203 37.70114135742188 98.56037139892578 C 37.69922256469727 98.56201934814453 37.69718170166016 98.56349182128906 37.69532012939453 98.56521606445313 C 37.68095397949219 98.57810974121094 37.66729354858398 98.59172058105469 37.65407180786133 98.6058349609375 C 37.65132141113281 98.6087646484375 37.64883422851563 98.61190032958984 37.64615249633789 98.61489868164063 C 37.63612365722656 98.62607574462891 37.62642288208008 98.63756561279297 37.61715316772461 98.64952087402344 C 37.6133918762207 98.65436553955078 37.60980987548828 98.65941619873047 37.60617065429688 98.66439819335938 C 37.59857177734375 98.67475128173828 37.59129333496094 98.68534851074219 37.58433532714844 98.69619750976563 C 37.5804328918457 98.7022705078125 37.57660293579102 98.70846557617188 37.57290267944336 98.71466064453125 C 37.56690216064453 98.72474670410156 37.56128311157227 98.73516082763672 37.55578231811523 98.74563598632813 C 37.55208206176758 98.75273132324219 37.54838180541992 98.75975036621094 37.5449333190918 98.7669677734375 C 37.54014205932617 98.77719116210938 37.53579330444336 98.78765869140625 37.53151321411133 98.79812622070313 C 37.5283203125 98.80585479736328 37.52487182617188 98.81346130371094 37.52206420898438 98.82130432128906 C 37.51644134521484 98.83676910400391 37.51153182983398 98.85260772705078 37.50705337524414 98.86869812011719 C 37.50175476074219 98.88779449462891 37.49747467041016 98.90726470947266 37.49390411376953 98.92700958251953 C 37.49313354492188 98.93115997314453 37.49198150634766 98.93531036376953 37.49128341674805 98.93946838378906 C 37.4908332824707 98.94214630126953 37.49077224731445 98.94501495361328 37.49032211303711 98.94783020019531 C 37.48751068115234 98.96711730957031 37.48528289794922 98.98640441894531 37.48419189453125 99.00563049316406 C 37.46094512939453 99.42375183105469 37.42058181762695 99.91492462158203 37.36547088623047 100.4604110717773 M 36.83532333374023 104.5010681152344 L 36.67917251586914 104.4592514038086 C 36.62377166748047 104.4444046020508 36.568115234375 104.4373092651367 36.51338195800781 104.4373092651367 C 36.23135757446289 104.4373092651367 35.97344970703125 104.6254959106445 35.89702224731445 104.9108276367188 C 35.80575180053711 105.2515563964844 36.00789260864258 105.6017150878906 36.34860992431641 105.692985534668 L 37.08171081542969 105.8894348144531 C 37.49785232543945 106.2219772338867 38.01995086669922 107.4092254638672 37.95596313476563 108.5759811401367 L 30.45298385620117 106.5655059814453 C 31.00669097900391 105.4723358154297 32.13045120239258 104.6813049316406 32.62700271606445 104.6687774658203 C 32.8863639831543 104.6622695922852 33.11609268188477 104.4994201660156 33.20811462402344 104.2567901611328 C 33.54002380371094 103.381591796875 33.87735366821289 102.5292510986328 34.20383453369141 101.7377014160156 L 37.22183227539063 101.7377014160156 C 37.11658477783203 102.59521484375 36.98572540283203 103.5326843261719 36.83532333374023 104.5010681152344 M 35.49729156494141 118.0200653076172 L 27.86026382446289 115.9737091064453 L 30.05548095703125 107.7813110351563 L 37.69245147705078 109.8276672363281 L 35.49729156494141 118.0200653076172 M 34.18654632568359 120.6300735473633 C 34.10115051269531 120.6300735473633 34.01420974731445 120.6186370849609 33.92800140380859 120.5955505371094 L 27.93153381347656 118.98876953125 C 27.93151092529297 118.9887466430664 27.93150329589844 118.9887390136719 27.93149948120117 118.9887390136719 C 27.93149566650391 118.9887390136719 27.93151092529297 118.98876953125 27.93146133422852 118.98876953125 C 27.48690414428711 118.8696594238281 27.19402313232422 118.4602813720703 27.29186248779297 118.0948486328125 L 27.52963256835938 117.2074508666992 L 35.16659545898438 119.2538070678711 L 34.92882537841797 120.1411514282227 C 34.88437271118164 120.30712890625 34.76405334472656 120.4473114013672 34.58996200561523 120.5357818603516 C 34.46683120727539 120.5983123779297 34.32883453369141 120.6300735473633 34.18654632568359 120.6300735473633 M 33.59747314453125 121.829345703125 L 33.59750366210938 121.829345703125 C 33.59748077392578 121.829345703125 33.59747314453125 121.829345703125 33.59747314453125 121.829345703125 M 35.54555511474609 93.29454040527344 C 35.81925201416016 93.29454040527344 36.09079360961914 93.33011627197266 36.35262298583984 93.40027618408203 L 39.42935180664063 94.22470092773438 C 41.07288360595703 94.66511535644531 42.0521240234375 96.36066436767578 41.61227416992188 98.00437164306641 L 41.23963165283203 99.39495086669922 C 41.12524032592773 99.82140350341797 40.92254257202148 100.2132339477539 40.64989471435547 100.548210144043 C 40.62453079223633 100.8119506835938 40.59572601318359 101.0886154174805 40.56363677978516 101.3765182495117 C 40.56280136108398 101.3842620849609 40.56192779541016 101.3919830322266 40.56101989746094 101.3996810913086 C 40.45468902587891 102.3502883911133 40.31423950195313 103.4103622436523 40.14987182617188 104.5055694580078 C 40.51576995849609 105.0836639404297 40.80679702758789 105.7655715942383 40.99674224853516 106.502311706543 C 41.21589279174805 107.3523178100586 41.39840316772461 108.6593856811523 41.02332305908203 110.0590972900391 L 38.56575012207031 119.230842590332 L 38.56575012207031 119.3374176025391 L 38.47054290771484 119.5861740112305 L 38.09454345703125 120.9894714355469 C 37.80617523193359 122.0656814575195 37.08884429931641 122.9421844482422 36.07470321655273 123.4575347900391 C 35.49524307250977 123.7519454956055 34.84250259399414 123.9075317382813 34.18691253662109 123.9075317382813 C 33.81484222412109 123.9075317382813 33.44244384765625 123.8583145141602 33.08005142211914 123.7612457275391 L 27.08332443237305 122.154426574707 C 24.8856315612793 121.5656280517578 23.55910110473633 119.3640670776367 24.12630462646484 117.2468109130859 L 27.05497360229492 106.3162612915039 C 27.43015289306641 104.9164657592773 28.24171447753906 103.8758392333984 28.85647201538086 103.2493209838867 C 29.38933563232422 102.7062606811523 29.9822998046875 102.2612457275391 30.58819580078125 101.9435653686523 C 30.84030151367188 101.3022918701172 31.09342575073242 100.6780776977539 31.34409332275391 100.0795745849609 L 31.35137176513672 100.0622100830078 L 31.35190963745117 100.0609893798828 C 31.61985397338867 99.42173004150391 31.87512969970703 98.83527374267578 32.11471557617188 98.30841827392578 C 32.02633285522461 97.80730438232422 32.06915283203125 97.29477691650391 32.24297332763672 96.81180572509766 L 32.52807998657227 95.74776458740234 C 32.65537261962891 95.03403472900391 33.04006576538086 94.39979553222656 33.62492370605469 93.94632720947266 C 34.1664924621582 93.52614593505859 34.84876251220703 93.29454040527344 35.54555511474609 93.29454040527344 Z M 35.24296569824219 111.2418746948242 L 31.46967697143555 110.2308044433594 L 30.30976867675781 114.5595092773438 L 34.08308410644531 115.5705718994141 L 35.24296569824219 111.2418746948242 Z" stroke="none" fill="#fff"/>
      </g>
      <g id="Tracé_35" data-name="Tracé 35" transform="translate(-231.946 -6.086)">
        <path d="M 246.6346435546875 3.486579656600952 C 246.0067901611328 3.486579656600952 245.4960021972656 2.97577977180481 245.4960021972656 2.347929716110229 L 245.4960021972656 0.6386497020721436 C 245.4960021972656 0.01079970877617598 246.0067901611328 -0.5000002980232239 246.6346435546875 -0.5000002980232239 C 247.2624969482422 -0.5000002980232239 247.7732849121094 0.01079970877617598 247.7732849121094 0.6386497020721436 L 247.7732849121094 2.347929716110229 C 247.7732849121094 2.97577977180481 247.2624969482422 3.486579656600952 246.6346435546875 3.486579656600952 Z" stroke="none"/>
        <path d="M 246.6346435546875 -2.384185791015625e-07 C 246.2819213867188 -2.384185791015625e-07 245.9960021972656 0.2859196662902832 245.9960021972656 0.6386497020721436 L 245.9960021972656 2.347929716110229 C 245.9960021972656 2.70065975189209 246.2819213867188 2.986579656600952 246.6346435546875 2.986579656600952 C 246.9873046875 2.986579656600952 247.2732849121094 2.70065975189209 247.2732849121094 2.347929716110229 L 247.2732849121094 0.6386497020721436 C 247.2732849121094 0.2859196662902832 246.9873657226563 -2.384185791015625e-07 246.6346435546875 -2.384185791015625e-07 M 246.6346435546875 -1.000000238418579 C 247.5381927490234 -1.000000238418579 248.2732849121094 -0.2649002075195313 248.2732849121094 0.6386497020721436 L 248.2732849121094 2.347929716110229 C 248.2732849121094 3.251479625701904 247.5381927490234 3.986579656600952 246.6346435546875 3.986579656600952 C 245.7310943603516 3.986579656600952 244.9960021972656 3.251479625701904 244.9960021972656 2.347929716110229 L 244.9960021972656 0.6386497020721436 C 244.9960021972656 -0.2649002075195313 245.7310943603516 -1.000000238418579 246.6346435546875 -1.000000238418579 Z" stroke="none" fill="#fff"/>
      </g>
      <g id="Tracé_36" data-name="Tracé 36" transform="translate(-179.833 -26.748)">
        <path d="M 191.8357238769531 25.32940292358398 C 191.4331359863281 25.32940292358398 191.0565643310547 25.11382293701172 190.8529815673828 24.76678276062012 L 189.9846496582031 23.28650283813477 C 189.6669921875 22.74488258361816 189.8491668701172 22.04586219787598 190.3907165527344 21.72823333740234 C 190.5652770996094 21.62579154968262 190.7643127441406 21.57162284851074 190.9661865234375 21.57162284851074 C 191.3688354492188 21.57162284851074 191.7454223632813 21.7872428894043 191.9489593505859 22.13433265686035 L 192.8172607421875 23.61455154418945 C 192.9711303710938 23.87691307067871 193.0136413574219 24.1834716796875 192.9369659423828 24.4777717590332 C 192.8602752685547 24.7721118927002 192.6735534667969 25.01895332336426 192.4111785888672 25.17282295227051 C 192.2368316650391 25.27520179748535 192.0377655029297 25.32940292358398 191.8357238769531 25.32940292358398 Z" stroke="none"/>
        <path d="M 191.8357238769531 24.82940292358398 C 191.9454956054688 24.82940292358398 192.0567626953125 24.80111312866211 192.1582336425781 24.74152183532715 C 192.4624938964844 24.56308174133301 192.5644226074219 24.17178153991699 192.3859710693359 23.86753273010254 L 191.5176696777344 22.38727188110352 C 191.3987884521484 22.18456268310547 191.1853485107422 22.07162475585938 190.9661865234375 22.07162475585938 C 190.8563995361328 22.07162475585938 190.7451934814453 22.09994888305664 190.6436767578125 22.15952301025391 C 190.3394317626953 22.33796310424805 190.2374877929688 22.72926330566406 190.4159393310547 23.03352165222168 L 191.2842407226563 24.5137825012207 C 191.4031677246094 24.71649169921875 191.6165313720703 24.82940292358398 191.8357238769531 24.82940292358398 M 191.8357238769531 25.82940292358398 C 191.2565002441406 25.82940292358398 190.7146911621094 25.51917266845703 190.4217224121094 25.01978302001953 L 189.5533905029297 23.53949165344238 C 189.0962219238281 22.76002311706543 189.3583831787109 21.75405311584473 190.1377716064453 21.29694175720215 C 190.3889007568359 21.14957237243652 190.6754302978516 21.07162284851074 190.9661865234375 21.07162284851074 C 191.5455017089844 21.07162284851074 192.0873413085938 21.38191223144531 192.3802795410156 21.88139152526855 L 193.2485198974609 23.36156272888184 C 193.4699859619141 23.7391414642334 193.5311584472656 24.18031311035156 193.4208221435547 24.60384178161621 C 193.3104400634766 25.02743148803711 193.0417175292969 25.3826732635498 192.6641235351563 25.60412216186523 C 192.4133453369141 25.75140190124512 192.126708984375 25.82940292358398 191.8357238769531 25.82940292358398 Z" stroke="none" fill="#fff"/>
      </g>
      <g id="Tracé_37" data-name="Tracé 37" transform="translate(-271.327 -26.748)">
        <path d="M 288.7022094726563 25.32960891723633 C 288.5003356933594 25.32960891723633 288.3013000488281 25.27544784545898 288.1266784667969 25.17297744750977 C 287.8643798828125 25.0191593170166 287.6776733398438 24.77231788635254 287.6009826660156 24.47798919677734 C 287.5242919921875 24.18366813659668 287.5668029785156 23.87711906433105 287.720703125 23.61478805541992 L 288.5889892578125 22.13450813293457 C 288.7925720214844 21.78743934631348 289.1691589355469 21.57184791564941 289.57177734375 21.57184791564941 C 289.7736206054688 21.57184791564941 289.9726257324219 21.62599754333496 290.1472778320313 21.72844886779785 C 290.6888122558594 22.04608917236328 290.8709716796875 22.74509811401367 290.5533752441406 23.28665924072266 L 289.6850280761719 24.7669792175293 C 289.4812927246094 25.11406898498535 289.104736328125 25.32960891723633 288.7022094726563 25.32960891723633 Z" stroke="none"/>
        <path d="M 288.7022094726563 24.82960891723633 C 288.9214172363281 24.82960891723633 289.134765625 24.71669769287109 289.2537536621094 24.51398849487305 L 290.1220703125 23.03372764587402 C 290.3005065917969 22.72946929931641 290.1985168457031 22.33816909790039 289.8943176269531 22.15972900390625 C 289.7927856445313 22.10017776489258 289.6815185546875 22.07184410095215 289.57177734375 22.07184410095215 C 289.3525390625 22.07184410095215 289.13916015625 22.18477249145508 289.020263671875 22.38747787475586 L 288.1519775390625 23.8677978515625 C 287.9735107421875 24.17198753356934 288.075439453125 24.56328773498535 288.3796997070313 24.74172782897949 C 288.4812622070313 24.80131912231445 288.5924377441406 24.82960891723633 288.7022094726563 24.82960891723633 M 288.7022094726563 25.82960891723633 C 288.4114685058594 25.82960891723633 288.1249389648438 25.75166893005371 287.8736267089844 25.60421752929688 C 287.4962158203125 25.38287925720215 287.2275085449219 25.02764892578125 287.1171264648438 24.60405921936035 C 287.0067749023438 24.18048858642578 287.0679626464844 23.73930931091309 287.2894592285156 23.36177825927734 L 288.1576843261719 21.88153839111328 C 288.45068359375 21.38208770751953 288.9924926757813 21.07184791564941 289.57177734375 21.07184791564941 C 289.8624572753906 21.07184791564941 290.14892578125 21.14975929260254 290.4002380371094 21.29714775085449 C 291.1795654296875 21.75429916381836 291.4417419433594 22.76023864746094 290.9846801757813 23.53959846496582 L 290.1163024902344 25.01995849609375 C 289.8230895996094 25.51946830749512 289.2813110351563 25.82960891723633 288.7022094726563 25.82960891723633 Z" stroke="none" fill="#fff"/>
      </g>
    </g>
    <g id="Groupe_39" data-name="Groupe 39" transform="translate(36.49)">
      <path id="Tracé_31" data-name="Tracé 31" d="M98.947,334.466a2.408,2.408,0,1,0,.241,1.827A2.392,2.392,0,0,0,98.947,334.466Zm-.993,1.5a1.131,1.131,0,1,1-.113-.858A1.132,1.132,0,0,1,97.954,335.962Z" transform="translate(-100.576 -311.977)"/>
      <path id="Tracé_30" data-name="Tracé 30" d="M152.458,232.019l.015,0a.639.639,0,0,0,.329-1.234l-.015,0a.639.639,0,0,0-.329,1.234Z" transform="translate(-154.432 -216.026)"/>
      <path id="Tracé_33" data-name="Tracé 33" d="M340.259,230.784l-.015,0a.639.639,0,1,0,.33,1.234l.015,0a.639.639,0,0,0-.33-1.234Z" transform="translate(-330.227 -216.024)"/>
      <path id="Tracé_34" data-name="Tracé 34" d="M346.831,335.045a2.408,2.408,0,1,0-2.327,3.032h0a2.408,2.408,0,0,0,2.327-3.032Zm-1.347,1.189a1.124,1.124,0,0,1-.687.527,1.136,1.136,0,0,1-.294.039h0a1.131,1.131,0,1,1,.98-.566Z" transform="translate(-332.404 -311.976)"/>
    </g>
  </g>
</svg>
