<svg xmlns="http://www.w3.org/2000/svg" width="10.279" height="12.461" viewBox="0 0 10.279 12.461">
  <g id="Groupe_67" data-name="Groupe 67" transform="translate(0.2 0.2)">
    <g id="Tracé_42" data-name="Tracé 42" transform="translate(-20.643)" fill="#fff">
      <path d="M 27.59805870056152 12.16112899780273 L 27.58646965026855 12.16112899780273 L 27.57487869262695 12.16112899780273 L 26.46638870239258 12.16112899780273 L 23.70133018493652 12.16112899780273 C 22.8374195098877 12.16112899780273 21.76225852966309 12.16112899780273 21.10647964477539 11.35276889801025 C 20.82843971252441 11.01003837585449 20.65219879150391 10.56893920898438 20.58264923095703 10.04171848297119 C 20.54402923583984 9.748229026794434 20.55070877075195 9.457839012145996 20.55715942382813 9.177008628845215 C 20.55875396728516 9.107729911804199 20.56034851074219 9.038277626037598 20.56130409240723 8.968537330627441 C 20.54914283752441 8.940717697143555 20.54299926757813 8.912459373474121 20.54299926757813 8.884199142456055 L 20.54299926757813 8.495378494262695 L 20.54299926757813 3.831278800964355 C 20.54299926757813 3.807702779769897 20.54697227478027 3.784170389175415 20.55483818054199 3.761043071746826 C 20.55230140686035 3.415172100067139 20.5670166015625 2.969216346740723 20.69359970092773 2.549468755722046 C 20.81313705444336 2.153158903121948 21.04398345947266 1.811567187309265 21.38139152526855 1.530778765678406 L 21.25104904174805 1.530778765678406 C 21.1263484954834 1.530778765678406 21.02489852905273 1.429328799247742 21.02489852905273 1.304628729820251 L 21.02489852905273 0.1261587589979172 C 21.02489852905273 0.001448761089704931 21.1263484954834 -0.1000012382864952 21.25104904174805 -0.1000012382864952 L 21.29834938049316 -0.1000012382864952 L 25.92523956298828 -0.1000012382864952 L 30.03271865844727 -0.1000012382864952 C 30.15724945068359 -0.1000012382864952 30.25856018066406 0.001448761089704931 30.25856018066406 0.1261587589979172 L 30.25856018066406 1.304628729820251 C 30.25856018066406 1.357517719268799 30.24136734008789 1.404745221138 30.20744132995605 1.445113062858582 C 30.20346641540527 1.450740694999695 30.19963836669922 1.455732822418213 30.19528007507324 1.460568785667419 L 30.19309997558594 1.462978720664978 L 30.19076919555664 1.465248703956604 C 30.18625640869141 1.469640135765076 30.18156814575195 1.47348690032959 30.17660331726074 1.477177381515503 C 30.13596153259277 1.512269735336304 30.08635902404785 1.530778765678406 30.03277015686035 1.530778765678406 L 29.98546981811523 1.530778765678406 L 29.80669021606445 1.530778765678406 C 30.01434326171875 1.707459211349487 30.23959159851074 1.940157055854797 30.38622856140137 2.229448795318604 C 30.54464912414551 2.541318655014038 30.61952972412109 2.89914870262146 30.62184906005859 3.355478763580322 C 30.62329864501953 3.641138792037964 30.61236953735352 3.930258750915527 30.6017894744873 4.209868907928467 C 30.59149932861328 4.48184871673584 30.58086013793945 4.763088703155518 30.58178901672363 5.038998603820801 L 30.58535957336426 6.034668922424316 C 30.58753967285156 6.653058528900146 30.58972930908203 7.271488666534424 30.59220886230469 7.889778614044189 L 30.5928783416748 8.123758316040039 C 30.59352874755859 8.35783863067627 30.59418869018555 8.591848373413086 30.59537887573242 8.826028823852539 C 30.59579849243164 8.935688972473145 30.59957885742188 9.047228813171387 30.60322952270508 9.155098915100098 C 30.61056900024414 9.371838569641113 30.6181583404541 9.595969200134277 30.59947967529297 9.820919036865234 C 30.55296897888184 10.38376903533936 30.41934013366699 10.82351875305176 30.19095993041992 11.16525840759277 C 29.89861869812012 11.60254859924316 29.4345588684082 11.91832828521729 28.88427925109863 12.0544490814209 C 28.4521484375 12.16112899780273 28.01795959472656 12.16112899780273 27.59805870056152 12.16112899780273 Z M 21.00268363952637 9.110038757324219 C 20.9710636138916 9.869648933410645 21.03215980529785 10.90437412261963 21.82383918762207 11.38425922393799 C 22.30994987487793 11.6783390045166 22.88562965393066 11.71887874603271 23.4353199005127 11.71887874603271 C 23.56954002380371 11.71887874603271 23.70576858520508 11.71627902984619 23.83749961853027 11.71376895904541 C 23.9666690826416 11.71130847930908 24.10022926330566 11.70876884460449 24.2292594909668 11.70876884460449 L 27.1201000213623 11.70876884460449 C 27.2249584197998 11.70876884460449 27.33196830749512 11.71035861968994 27.44028854370117 11.71195888519287 C 27.5502986907959 11.71359920501709 27.66167831420898 11.71525859832764 27.77352905273438 11.71525859832764 C 28.49636840820313 11.71525859832764 29.06859970092773 11.63717842102051 29.51184844970703 11.2561092376709 C 29.81832885742188 10.99268913269043 30.01753997802734 10.61657905578613 30.10396003723145 10.13822841644287 C 30.16161918640137 9.821148872375488 30.15487861633301 9.511948585510254 30.14772987365723 9.184588432312012 C 30.14554977416992 9.084698677062988 30.14336967468262 8.984448432922363 30.14306831359863 8.883548736572266 C 30.14153861999512 8.40087890625 30.13972854614258 7.918208599090576 30.13791847229004 7.435538768768311 L 30.1355094909668 6.786168575286865 L 30.13323974609375 6.138648986816406 C 30.13142013549805 5.625008583068848 30.12958908081055 5.111588954925537 30.12821960449219 4.598258972167969 C 30.12743949890137 4.398918628692627 30.14052963256836 4.195138931274414 30.15317916870117 3.998068809509277 C 30.1766185760498 3.633068799972534 30.20085906982422 3.255648851394653 30.13641929626465 2.899278879165649 C 30.02170944213867 2.263938665390015 29.54043006896973 1.863508820533752 29.13394927978516 1.585628747940063 C 29.11153221130371 1.570361733436584 29.09274482727051 1.552065253257751 29.07769393920898 1.530888795852661 L 25.35878944396973 1.530888795852661 L 22.17731475830078 1.530888795852661 C 22.15839767456055 1.555375456809998 22.13372802734375 1.576005935668945 22.10431861877441 1.591518759727478 C 21.74532890319824 1.780618786811829 21.50589942932129 1.975168704986572 21.35076904296875 2.203798770904541 C 21.2072696685791 2.415108680725098 21.11078834533691 2.669158697128296 21.06400871276855 2.958898782730103 C 21.02758598327637 3.185206890106201 21.01822853088379 3.407903432846069 21.01643371582031 3.604858875274658 L 22.35569000244141 3.604858875274658 L 27.03273963928223 3.604858875274658 C 27.15744972229004 3.604858875274658 27.2588996887207 3.706308841705322 27.2588996887207 3.831008672714233 L 27.2588996887207 4.219838619232178 L 27.2588996887207 8.883938789367676 C 27.2588996887207 8.939154624938965 27.24006652832031 8.989094734191895 27.204345703125 9.028925895690918 C 27.2005786895752 9.033977508544922 27.19656181335449 9.038745880126953 27.1923999786377 9.042908668518066 C 27.18364334106445 9.051000595092773 27.17781066894531 9.055501937866211 27.17162132263184 9.059814453125 C 27.13214874267578 9.092695236206055 27.08416748046875 9.110038757324219 27.03241920471191 9.110038757324219 L 25.44588851928711 9.110038757324219 L 21.00268363952637 9.110038757324219 Z M 21.01678657531738 8.658048629760742 L 22.35511016845703 8.658048629760742 L 26.80599975585938 8.658048629760742 L 26.80599975585938 8.495059013366699 C 26.80599975585938 7.015591144561768 26.80599784851074 5.536472797393799 26.8056526184082 4.057058811187744 L 25.44551849365234 4.057058811187744 L 21.01978492736816 4.057058811187744 L 21.02113914489746 4.113258838653564 C 21.02541923522949 4.284498691558838 21.02983856201172 4.461568832397461 21.02934837341309 4.635998725891113 L 21.02470970153809 5.945258617401123 L 21.02083969116211 7.036258697509766 C 21.02033996582031 7.217918872833252 21.02110862731934 7.400008678436279 21.02187919616699 7.582238674163818 C 21.02336692810059 7.934938907623291 21.02490615844727 8.298563003540039 21.01678657531738 8.658048629760742 Z M 21.47688865661621 1.078468799591064 L 25.92492866516113 1.078468799591064 L 29.80629920959473 1.078468799591064 L 29.80629920959473 0.3522587716579437 L 25.3582592010498 0.3522587716579437 L 21.47688865661621 0.3522587716579437 L 21.47688865661621 1.078468799591064 Z" stroke="none"/>
      <path d="M 27.59805870056152 12.06112861633301 C 28.02372360229492 12.06112861633301 28.44369888305664 12.06021308898926 28.86026954650879 11.95737838745117 C 29.36769866943359 11.83185863494873 29.81581878662109 11.54646873474121 30.10781860351563 11.10969829559326 C 30.36260986328125 10.72843837738037 30.46260833740234 10.26297855377197 30.49981880187988 9.812639236450195 C 30.5272388458252 9.482479095458984 30.49664878845215 9.156699180603027 30.4953784942627 8.826539039611816 C 30.49378967285156 8.514298439025879 30.4931583404541 8.20236873626709 30.49220848083496 7.890178680419922 C 30.48839950561523 6.940018653869629 30.48527908325195 5.989548683166504 30.48178863525391 5.0393385887146 C 30.47989845275879 4.477698802947998 30.52470970153809 3.917318820953369 30.52184867858887 3.355988740921021 C 30.51994895935059 2.981328725814819 30.46825981140137 2.611738681793213 30.29702949523926 2.274658679962158 C 30.12198829650879 1.929328799247742 29.82903861999512 1.660948753356934 29.5190601348877 1.430778741836548 C 29.6745491027832 1.430778741836548 29.82966995239258 1.430778741836548 29.98546981811523 1.430778741836548 C 30.00121879577637 1.430778741836548 30.01701927185059 1.430778741836548 30.03277015686035 1.430778741836548 C 30.06775856018066 1.430778741836548 30.09365844726563 1.417518734931946 30.11380004882813 1.399228811264038 C 30.11632919311523 1.397328734397888 30.11880874633789 1.39573872089386 30.12102890014648 1.393578767776489 C 30.1238899230957 1.390408754348755 30.12604904174805 1.386968731880188 30.1282787322998 1.383798718452454 C 30.14592933654785 1.36392879486084 30.15855979919434 1.338718771934509 30.15855979919434 1.304628729820251 C 30.15855979919434 0.9116787314414978 30.15855979919434 0.518788754940033 30.15855979919434 0.1261587589979172 C 30.15855979919434 0.05739876255393028 30.10083961486816 -1.238861045749218e-06 30.03271865844727 -1.238861045749218e-06 C 28.66344833374023 -1.238861045749218e-06 27.29387855529785 -1.238861045749218e-06 25.92523956298828 -1.238861045749218e-06 C 24.38284873962402 -1.238861045749218e-06 22.84043884277344 -1.238861045749218e-06 21.29834938049316 -1.238861045749218e-06 C 21.2825984954834 -1.238861045749218e-06 21.26679992675781 -1.238861045749218e-06 21.25104904174805 -1.238861045749218e-06 C 21.18228912353516 -1.238861045749218e-06 21.12489891052246 0.05739876255393028 21.12489891052246 0.1261587589979172 C 21.12489891052246 0.5190987586975098 21.12489891052246 0.9119987487792969 21.12489891052246 1.304628729820251 C 21.12489891052246 1.373388767242432 21.18228912353516 1.430778741836548 21.25104904174805 1.430778741836548 C 21.39580917358398 1.430778741836548 21.54056930541992 1.430778741836548 21.68527984619141 1.430778741836548 C 21.26394844055176 1.706398725509644 20.94038963317871 2.077568769454956 20.78933906555176 2.578338861465454 C 20.67359924316406 2.962138652801514 20.6512393951416 3.371788740158081 20.65499877929688 3.779528856277466 C 20.64775848388672 3.795278787612915 20.64299964904785 3.812668800354004 20.64299964904785 3.831278800964355 C 20.64299964904785 5.385988712310791 20.64299964904785 6.940658569335938 20.64299964904785 8.495378494262695 C 20.64299964904785 8.624968528747559 20.64299964904785 8.754609107971191 20.64299964904785 8.884199142456055 C 20.64299964904785 8.906608581542969 20.65086936950684 8.927118301391602 20.66160011291504 8.945398330688477 C 20.65747833251953 9.309019088745117 20.63385963439941 9.664388656616211 20.68178939819336 10.02863883972168 C 20.74235916137695 10.48780918121338 20.88991928100586 10.92709922790527 21.18413925170898 11.28976917266846 C 21.79810905456543 12.04658889770508 22.80978012084961 12.06112861633301 23.70133018493652 12.06112861633301 C 24.62309837341309 12.06112861633301 25.54455947875977 12.06112861633301 26.46638870239258 12.06112861633301 C 26.83596992492676 12.06112861633301 27.20523834228516 12.06112861633301 27.57487869262695 12.06112861633301 C 27.58260726928711 12.06112861633301 27.59033393859863 12.06112861633301 27.59805870056152 12.06112861633301 M 20.90635871887207 9.010038375854492 C 22.41941833496094 9.010038375854492 23.93249893188477 9.010038375854492 25.44588851928711 9.010038375854492 C 25.97470855712891 9.010038375854492 26.50359916687012 9.010038375854492 27.03241920471191 9.010038375854492 C 27.06582832336426 9.010038375854492 27.09108924865723 8.997718811035156 27.11063957214355 8.980388641357422 C 27.11475944519043 8.9775390625 27.11819839477539 8.975368499755859 27.12168884277344 8.972198486328125 C 27.12358856201172 8.970298767089844 27.12516975402832 8.967759132385254 27.126708984375 8.965588569641113 C 27.1456184387207 8.946039199829102 27.15889930725098 8.919558525085449 27.15889930725098 8.883938789367676 C 27.15889930725098 7.328898906707764 27.15889930725098 5.774548530578613 27.15889930725098 4.219838619232178 C 27.15889930725098 4.090248584747314 27.15889930725098 3.960598707199097 27.15889930725098 3.831008672714233 C 27.15889930725098 3.762248754501343 27.10149955749512 3.704858779907227 27.03273963928223 3.704858779907227 C 25.47362899780273 3.704858779907227 23.91484832763672 3.704858779907227 22.35569000244141 3.704858779907227 C 21.87600898742676 3.704858779907227 21.39575958251953 3.704858779907227 20.91607856750488 3.704858779907227 C 20.9157600402832 3.450058698654175 20.92458915710449 3.195848703384399 20.96529006958008 2.942958831787109 C 21.01132011413574 2.657878875732422 21.10528945922852 2.38727879524231 21.26801872253418 2.147648811340332 C 21.4616584777832 1.862258791923523 21.75714874267578 1.661368727684021 22.05765914916992 1.503078818321228 C 22.09169960021973 1.485118746757507 22.11003875732422 1.458948731422424 22.11695861816406 1.430888772010803 C 23.19765853881836 1.430888772010803 24.27840995788574 1.430888772010803 25.35878944396973 1.430888772010803 C 26.6192798614502 1.430888772010803 27.87972831726074 1.430888772010803 29.1399097442627 1.430888772010803 C 29.14713859558105 1.45767879486084 29.16167831420898 1.483528733253479 29.19038009643555 1.503078818321228 C 29.69367980957031 1.84713876247406 30.12288856506348 2.261498689651489 30.23481941223145 2.881488800048828 C 30.336669921875 3.444718837738037 30.22599983215332 4.031258583068848 30.22821998596191 4.597988605499268 C 30.23016929626465 5.326958656311035 30.23302841186523 6.056088924407959 30.23550987243652 6.785808563232422 C 30.2380485534668 7.484968662261963 30.24084854125977 8.184079170227051 30.24306869506836 8.883248329162598 C 30.24433898925781 9.312138557434082 30.27995872497559 9.729338645935059 30.20236968994141 10.15600872039795 C 30.12071990966797 10.60793876647949 29.92960929870605 11.02889919281006 29.57703971862793 11.33193874359131 C 29.07866668701172 11.76039695739746 28.41871070861816 11.81525611877441 27.77352905273438 11.81525611877441 C 27.55155372619629 11.81525611877441 27.33143424987793 11.80876922607422 27.1201000213623 11.80876922607422 C 26.15635871887207 11.80876922607422 25.19267845153809 11.80876922607422 24.2292594909668 11.80876922607422 C 23.97077751159668 11.80876922607422 23.70326614379883 11.81887340545654 23.43531799316406 11.81887435913086 C 22.85395622253418 11.81887531280518 22.27044486999512 11.77131175994873 21.77199935913086 11.4697790145874 C 20.94640922546387 10.96932888031006 20.86375999450684 9.922348976135254 20.90508842468262 9.053849220275879 C 20.90571975708008 9.039368629455566 20.90571975708008 9.024518966674805 20.90635871887207 9.010038375854492 M 20.91734886169434 3.957058668136597 C 22.42692947387695 3.957058668136597 23.93592834472656 3.957058668136597 25.44551849365234 3.957058668136597 C 25.93242835998535 3.957058668136597 26.41902923583984 3.957058668136597 26.90563011169434 3.957058668136597 C 26.9060001373291 5.469818592071533 26.9060001373291 6.982248783111572 26.9060001373291 8.495059013366699 C 26.9060001373291 8.582738876342773 26.9060001373291 8.670418739318848 26.9060001373291 8.758049011230469 C 25.38912010192871 8.758049011230469 23.87229919433594 8.758049011230469 22.35511016845703 8.758049011230469 C 21.87479972839355 8.758049011230469 21.39453887939453 8.758049011230469 20.91422843933105 8.758049011230469 C 20.93029975891113 8.184719085693359 20.91924858093262 7.608588695526123 20.92083930969238 7.035898685455322 C 20.9236888885498 6.235838890075684 20.92648887634277 5.435778617858887 20.92934989929199 4.635718822479248 C 20.92997932434082 4.409938812255859 20.92241859436035 4.183528900146484 20.91734886169434 3.957058668136597 M 21.37689018249512 0.2522587478160858 C 22.70423889160156 0.2522587478160858 24.03121948242188 0.2522587478160858 25.3582592010498 0.2522587478160858 C 26.87444877624512 0.2522587478160858 28.39005851745605 0.2522587478160858 29.90629959106445 0.2522587478160858 C 29.90629959106445 0.5610087513923645 29.90629959106445 0.8697187900543213 29.90629959106445 1.178468704223633 C 28.57925987243652 1.178468704223633 27.25164985656738 1.178468704223633 25.92492866516113 1.178468704223633 C 24.40868949890137 1.178468704223633 22.89249992370605 1.178468704223633 21.37689018249512 1.178468704223633 C 21.37689018249512 0.8697187900543213 21.37689018249512 0.5610087513923645 21.37689018249512 0.2522587478160858 M 27.59805870056152 12.26112842559814 L 27.57487869262695 12.26112842559814 L 26.46638870239258 12.26112842559814 L 23.70133018493652 12.26112842559814 C 22.81619834899902 12.26112842559814 21.71461868286133 12.26112842559814 21.0288200378418 11.41576862335205 C 20.73897933959961 11.0584888458252 20.55550003051758 10.60058879852295 20.4835090637207 10.05479907989502 C 20.44388008117676 9.753628730773926 20.45063972473145 9.459328651428223 20.45718955993652 9.174708366394043 C 20.45862579345703 9.112255096435547 20.46006393432617 9.04966926574707 20.46102333068848 8.986849784851074 C 20.44904327392578 8.953268051147461 20.4429988861084 8.918925285339355 20.4429988861084 8.884199142456055 L 20.4429988861084 8.495378494262695 L 20.4429988861084 3.831278800964355 C 20.4429988861084 3.802643060684204 20.44693756103516 3.774222135543823 20.45474433898926 3.746312141418457 C 20.45271873474121 3.395570993423462 20.46932220458984 2.946816921234131 20.59785842895508 2.520598649978638 C 20.70145225524902 2.177148342132568 20.88431358337402 1.873287796974182 21.14363479614258 1.612608075141907 C 21.01640701293945 1.568106055259705 20.92490005493164 1.446852087974548 20.92490005493164 1.304628729820251 L 20.92490005493164 0.1261587589979172 C 20.92490005493164 -0.05369123816490173 21.07120895385742 -0.2000012397766113 21.25104904174805 -0.2000012397766113 L 21.29834938049316 -0.2000012397766113 L 25.92523956298828 -0.2000012397766113 L 30.03271865844727 -0.2000012397766113 C 30.21238899230957 -0.2000012397766113 30.35855865478516 -0.05369123816490173 30.35855865478516 0.1261587589979172 L 30.35855865478516 1.304628729820251 C 30.35855865478516 1.379255533218384 30.33378028869629 1.448640584945679 30.2867317199707 1.506153464317322 C 30.28147888183594 1.513411998748779 30.27583122253418 1.520564556121826 30.26952934265137 1.527548789978027 L 30.26516914367676 1.532388806343079 L 30.26049995422363 1.536928772926331 C 30.25369071960449 1.543551206588745 30.2466869354248 1.54949939250946 30.23929023742676 1.555152654647827 C 30.18820953369141 1.598381638526917 30.12750434875488 1.623765707015991 30.0617790222168 1.629519581794739 C 30.2164306640625 1.784018039703369 30.36613655090332 1.968640089035034 30.47541999816895 2.18423867225647 C 30.6411190032959 2.510428667068481 30.71944999694824 2.88248872756958 30.72184944152832 3.354978799819946 C 30.72330856323242 3.642768859863281 30.71233940124512 3.93298864364624 30.70171928405762 4.213648796081543 C 30.69146919250488 4.484618663787842 30.68087005615234 4.764808654785156 30.68178939819336 5.038668632507324 L 30.68535995483398 6.034308910369873 C 30.68754005432129 6.652698993682861 30.68972969055176 7.271098613739014 30.69220924377441 7.889378547668457 L 30.69287872314453 8.123488426208496 C 30.69352912902832 8.357479095458984 30.69418907165527 8.591419219970703 30.69537925720215 8.825518608093262 C 30.6957893371582 8.933798789978027 30.69954872131348 9.044578552246094 30.70316886901855 9.151708602905273 C 30.71060943603516 9.371328353881836 30.71829986572266 9.598419189453125 30.69912910461426 9.829188346862793 C 30.65119934082031 10.40936851501465 30.51216888427734 10.86459922790527 30.27410888671875 11.22082901000977 C 29.96786880493164 11.67888832092285 29.48281860351563 12.00940895080566 28.90829849243164 12.15152835845947 C 28.46428871154785 12.26112842559814 28.02392959594727 12.26112842559814 27.59805870056152 12.26112842559814 Z M 21.09919929504395 9.210039138793945 C 21.07823371887207 9.933133125305176 21.16113471984863 10.86561107635498 21.87566947937012 11.29874897003174 C 22.34073829650879 11.58008861541748 22.9001293182373 11.61887836456299 23.4353199005127 11.61887836456299 C 23.56852912902832 11.61887836456299 23.70420837402344 11.61628913879395 23.83541870117188 11.61378860473633 C 23.96510887145996 11.61131858825684 24.09921836853027 11.60876846313477 24.2292594909668 11.60876846313477 L 27.1201000213623 11.60876846313477 C 27.22544860839844 11.60876846313477 27.33294868469238 11.61035919189453 27.44178009033203 11.61197853088379 C 27.55128860473633 11.61359882354736 27.66216850280762 11.61525917053223 27.77352905273438 11.61525917053223 C 28.4741096496582 11.61525917053223 29.02674865722656 11.54128837585449 29.44665908813477 11.18027877807617 C 29.73527908325195 10.9321985244751 29.92331886291504 10.57562923431396 30.00555992126465 10.12044906616211 C 30.06142997741699 9.81321907043457 30.05478858947754 9.508928298950195 30.04776000976563 9.186768531799316 C 30.04555892944336 9.086258888244629 30.04336929321289 8.985368728637695 30.04306983947754 8.883838653564453 C 30.04154014587402 8.401208877563477 30.03973007202148 7.91856861114502 30.03791999816895 7.435918807983398 L 30.03550910949707 6.786538600921631 L 30.03323936462402 6.138998985290527 C 30.03141975402832 5.625328540802002 30.02958869934082 5.111888885498047 30.02821922302246 4.598518848419189 C 30.02742958068848 4.395908832550049 30.04061889648438 4.190398693084717 30.05338859558105 3.991658687591553 C 30.07749938964844 3.61612868309021 30.10027885437012 3.261428833007813 30.03800964355469 2.917078733444214 C 29.95364952087402 2.449768781661987 29.65741920471191 2.064618825912476 29.0775089263916 1.668188810348511 C 29.06110382080078 1.65701162815094 29.04594612121582 1.644541025161743 29.0321159362793 1.630888819694519 L 25.35878944396973 1.630888819694519 L 22.22088813781738 1.630888819694519 C 22.2003173828125 1.649792551994324 22.17690467834473 1.666292667388916 22.1509895324707 1.67996871471405 C 21.80702018737793 1.861148715019226 21.57906913757324 2.045418739318848 21.43351936340332 2.259938716888428 C 21.29825973510742 2.459118843078613 21.20716857910156 2.699618816375732 21.16272926330566 2.974838733673096 C 21.13336944580078 3.157272815704346 21.12207984924316 3.338266372680664 21.11807250976563 3.504858732223511 L 22.35569000244141 3.504858732223511 L 27.03273963928223 3.504858732223511 C 27.21258926391602 3.504858732223511 27.35890007019043 3.651168823242188 27.35890007019043 3.831008672714233 L 27.35890007019043 4.219838619232178 L 27.35890007019043 8.883938789367676 C 27.35890007019043 8.962588310241699 27.33244895935059 9.034104347229004 27.28220748901367 9.091838836669922 C 27.27729988098145 9.098238945007324 27.27102088928223 9.105712890625 27.26310920715332 9.113618850708008 L 27.25971984863281 9.117018699645996 L 27.25615882873535 9.120248794555664 C 27.24826049804688 9.127418518066406 27.24066352844238 9.133423805236816 27.2323169708252 9.139378547668457 C 27.17532920837402 9.185659408569336 27.10651779174805 9.210039138793945 27.03241920471191 9.210039138793945 L 25.44588851928711 9.210039138793945 L 21.09919929504395 9.210039138793945 Z M 21.11881828308105 8.558049201965332 L 22.35511016845703 8.558049201965332 L 26.70599937438965 8.558049201965332 L 26.70599937438965 8.495059013366699 C 26.70599937438965 7.048933506011963 26.70599746704102 5.603110790252686 26.70567512512207 4.157058715820313 L 25.44551849365234 4.157058715820313 L 21.12226104736328 4.157058715820313 C 21.12615394592285 4.314501285552979 21.12979507446289 4.476199626922607 21.12934875488281 4.636278629302979 L 21.12469863891602 5.945618629455566 L 21.12084007263184 7.036608695983887 C 21.12033843994141 7.217958927154541 21.12110900878906 7.399818897247314 21.12187957763672 7.581818580627441 C 21.12322616577148 7.901828289031982 21.1246223449707 8.230833053588867 21.11881828308105 8.558049201965332 Z M 21.57688903808594 0.9784687757492065 L 25.92492866516113 0.9784687757492065 L 29.706298828125 0.9784687757492065 L 29.706298828125 0.4522587656974792 L 25.3582592010498 0.4522587656974792 L 21.57688903808594 0.4522587656974792 L 21.57688903808594 0.9784687757492065 Z" stroke="none" fill="#fff"/>
    </g>
  </g>
</svg>
