<svg xmlns="http://www.w3.org/2000/svg" width="48.156" height="48.155" viewBox="0 0 48.156 48.155">
  <g id="carrot_1_" data-name="carrot (1)" transform="translate(4.794 12.016) rotate(-13)">
    <g id="Groupe_18" data-name="Groupe 18" transform="translate(0.628 0.643)">
      <path id="Tracé_14" data-name="Tracé 14" d="M18.605,18.62a7.354,7.354,0,0,1,4-2.259c-.14-3.559-1.408-6.346-2.952-6.346-1.092,0-2.046,1.4-2.56,3.472-1.832-1.1-3.493-1.417-4.266-.644s-.46,2.433.644,4.265C11.4,17.622,10,18.576,10,19.668c0,1.543,2.786,2.811,6.346,2.952A7.354,7.354,0,0,1,18.605,18.62Z" transform="translate(-10 -10.015)" fill="#fff" fill-rule="evenodd"/>
      <path id="Tracé_15" data-name="Tracé 15" d="M121.947,112.4c-1.79-1.79-3.679-2.537-5.552-2.247a8.573,8.573,0,0,0-6.259,6.259c-.29,1.873.457,3.763,2.247,5.552,3.042,3.042,17.968,15.758,21.645,12.08S124.989,115.44,121.947,112.4Z" transform="translate(-103.79 -103.805)" fill="#fff" fill-rule="evenodd"/>
    </g>
    <g id="Tracé_16" data-name="Tracé 16" transform="translate(0)">
      <path d="M 29.01718139648438 34.16680145263672 C 27.95072174072266 34.16680145263672 26.78482055664063 33.92859268188477 25.45283126831055 33.43857192993164 C 23.4715404510498 32.70970153808594 21.07515144348145 31.39644241333008 18.33025169372559 29.5352840423584 C 13.42370128631592 26.20853233337402 8.822320938110352 22.11823272705078 7.362680912017822 20.65859413146973 C 5.78338623046875 19.07923698425293 4.806211948394775 17.38837432861328 4.444386959075928 15.61464786529541 C 3.291983127593994 15.40872097015381 2.240444660186768 15.09115600585938 1.345810890197754 14.67548370361328 C 0.3809609115123749 14.22722339630127 -0.3936590850353241 13.66539287567139 -0.9564790725708008 13.00563335418701 C -1.639089107513428 12.2054328918457 -1.99989902973175 11.26857280731201 -1.99989902973175 10.2963228225708 C -1.99993908405304 9.481553077697754 -1.744219064712524 8.273073196411133 -0.5257591009140015 7.143383026123047 C -0.192518875002861 6.834418773651123 0.1919590532779694 6.551753997802734 0.6254063248634338 6.296632766723633 C 0.4993609189987183 5.809847354888916 0.4273867905139923 5.338190078735352 0.410210907459259 4.884163379669189 C 0.3473909199237823 3.223743200302124 1.020980954170227 2.188383340835571 1.597120881080627 1.612213253974915 C 2.376380920410156 0.8329532742500305 3.435081005096436 0.4210932552814484 4.658811092376709 0.4210932552814484 C 5.177161693572998 0.4210932552814484 5.719412326812744 0.494429886341095 6.281929492950439 0.64011150598526 C 6.53699779510498 0.2068365067243576 6.819646835327148 -0.1776054203510284 7.128520965576172 -0.5107567310333252 C 8.258220672607422 -1.729256749153137 9.46665096282959 -1.985026717185974 10.28146076202393 -1.985026717185974 C 11.25477123260498 -1.98496675491333 12.1923713684082 -1.623496770858765 12.99301052093506 -0.939696729183197 C 13.65303134918213 -0.3759967386722565 14.21496105194092 0.3998232483863831 14.6631908416748 1.366203308105469 C 15.07811069488525 2.260798931121826 15.395094871521 3.312007188796997 15.60057926177979 4.463522434234619 C 16.30905532836914 4.610114097595215 17.00900077819824 4.855538368225098 17.6938304901123 5.198183059692383 C 18.32153129577637 5.51218318939209 18.78949165344238 6.051973342895508 19.01131057739258 6.718033313751221 C 19.23311042785645 7.384023189544678 19.18228149414063 8.096532821655273 18.86819076538086 8.724312782287598 C 18.41984176635742 9.620173454284668 17.51910018920898 10.17656326293945 16.51736068725586 10.17656326293945 C 16.11191177368164 10.17656326293945 15.70559120178223 10.08054351806641 15.34234046936035 9.898893356323242 C 14.87649059295654 9.665802955627441 14.4400806427002 9.552593231201172 14.00778102874756 9.552593231201172 C 13.10381126403809 9.552593231201172 12.12265110015869 10.07538318634033 11.09155082702637 11.10645294189453 C 10.16770076751709 12.0302677154541 9.652806282043457 12.91879558563232 9.55742359161377 13.75209140777588 C 9.962543487548828 13.50731468200684 10.42776393890381 13.37666320800781 10.91300106048584 13.37666320800781 C 11.61486053466797 13.37666320800781 12.27476119995117 13.64996337890625 12.77113056182861 14.14621353149414 C 13.79594135284424 15.1710729598999 13.79594135284424 16.83829307556152 12.77133083343506 17.86294364929199 L 12.42879390716553 18.20549392700195 C 14.04489994049072 19.66037368774414 16.64005088806152 21.85244369506836 19.46562194824219 23.90838241577148 L 19.76169013977051 23.61231231689453 C 20.25882148742676 23.11570358276367 20.91855049133301 22.84261322021484 21.6201000213623 22.84261322021484 C 22.32206153869629 22.84261322021484 22.98199081420898 23.11596298217773 23.47833061218262 23.61231231689453 C 24.3489990234375 24.48319435119629 24.47972297668457 25.81793785095215 23.87075424194336 26.82799911499023 C 26.88220024108887 28.59146690368652 28.36152267456055 28.87498474121094 28.89876556396484 28.90854072570801 C 28.88244819641113 28.61888122558594 28.79693412780762 28.09480476379395 28.48030662536621 27.2475528717041 C 28.1626091003418 27.38078308105469 27.81850433349609 27.45063400268555 27.46362113952637 27.45063400268555 C 26.76165008544922 27.45063400268555 26.1016902923584 27.17727279663086 25.60531997680664 26.68089294433594 C 24.58071136474609 25.65599250793457 24.58079147338867 23.98882293701172 25.60529136657715 22.96428298950195 L 26.00547409057617 22.56410026550293 C 24.87625503540039 20.79265785217285 23.59437370300293 19.04056739807129 22.45454978942871 17.56669998168945 C 22.01985549926758 17.86660194396973 21.50539970397949 18.02792358398438 20.96626091003418 18.02792358398438 C 20.26429176330566 18.02792358398438 19.60434150695801 17.75456237792969 19.10797119140625 17.25818252563477 C 18.61160087585449 16.7618236541748 18.33824157714844 16.10186386108398 18.33824157714844 15.39989280700684 C 18.33824157714844 14.69792366027832 18.61160087585449 14.03796291351318 19.10797119140625 13.54160308837891 L 19.13689613342285 13.51267719268799 C 18.98048210144043 13.33203125 18.84438514709473 13.1764669418335 18.73128128051758 13.04806327819824 C 17.77347183227539 11.96059322357178 17.87894058227539 10.29667282104492 18.96637153625488 9.338872909545898 C 19.44639015197754 8.915983200073242 20.0632209777832 8.683003425598145 20.70308113098145 8.683003425598145 C 21.45783996582031 8.683003425598145 22.17676162719727 9.007762908935547 22.67549133300781 9.574003219604492 C 23.86427116394043 10.92364311218262 27.97107124328613 15.69929313659668 30.90474128723145 20.48571395874023 C 32.32173919677734 22.79767417907715 33.28401184082031 24.82356262207031 33.76483917236328 26.50713348388672 C 34.71784973144531 29.84435272216797 33.72492980957031 31.73795318603516 32.72417068481445 32.73885345458984 C 32.07258224487305 33.39037322998047 30.90070152282715 34.16680145263672 29.01718139648438 34.16680145263672 Z M 4.704974174499512 10.29353427886963 C 4.84844446182251 10.32997989654541 5.000463485717773 10.36486911773682 5.161043643951416 10.39748477935791 C 5.218247890472412 10.28174304962158 5.27818489074707 10.16650867462158 5.340918064117432 10.05168056488037 C 5.150211334228516 10.15424156188965 4.945917129516602 10.23377513885498 4.732171058654785 10.28675365447998 C 4.723044872283936 10.28901386260986 4.714017391204834 10.29126453399658 4.704974174499512 10.29353427886963 Z M 6.330417156219482 6.345261096954346 C 6.337092399597168 6.356438636779785 6.343809127807617 6.367631912231445 6.350610733032227 6.378913402557373 C 6.66637134552002 6.902447700500488 6.785737037658691 7.518984317779541 6.700029373168945 8.114163398742676 C 6.911466598510742 7.869794845581055 7.136446475982666 7.628319263458252 7.37497091293335 7.389793395996094 C 7.613090515136719 7.151675701141357 7.854337692260742 6.927002906799316 8.098563194274902 6.715854644775391 C 7.974208354949951 6.733839988708496 7.84821891784668 6.742883205413818 7.721110820770264 6.742883205413818 C 7.24289083480835 6.742883205413818 6.773651123046875 6.612373352050781 6.364100933074951 6.36547327041626 C 6.352804660797119 6.358662128448486 6.341615676879883 6.351948261260986 6.330417156219482 6.345261096954346 Z M 10.27880477905273 4.719442844390869 C 10.276535987854 4.728484153747559 10.27426052093506 4.737609386444092 10.27200126647949 4.74673318862915 C 10.21865177154541 4.961908340454102 10.13840293884277 5.167513847351074 10.03488731384277 5.359285831451416 C 10.15059852600098 5.296149253845215 10.26660346984863 5.235897541046143 10.38329124450684 5.178329944610596 C 10.35051918029785 5.016695499420166 10.31545162200928 4.863757610321045 10.27880477905273 4.719442844390869 Z" stroke="none"/>
      <path d="M 29.01718139648438 32.16680145263672 C 29.98171043395996 32.16680145263672 30.74859046936035 31.88594245910645 31.30986022949219 31.32473373413086 C 32.21353912353516 30.42093276977539 32.39245986938477 28.98488235473633 31.84174156188965 27.05639266967773 L 31.84174156188965 27.05638313293457 C 31.41072082519531 25.54723358154297 30.52174186706543 23.68813323974609 29.19955062866211 21.53085327148438 C 26.34980010986328 16.8813533782959 22.33675003051758 12.21527290344238 21.17464065551758 10.89591312408447 C 21.0505256652832 10.75499725341797 20.87720108032227 10.68300628662109 20.70308113098145 10.68300628662109 C 20.55561447143555 10.68300628662109 20.40758514404297 10.73461532592773 20.28830146789551 10.83970355987549 C 20.02798080444336 11.06899356842041 20.00286102294922 11.46584320068359 20.23208999633789 11.72610282897949 C 20.56627082824707 12.10549354553223 21.13991165161133 12.76599311828613 21.85385131835938 13.62413311004639 L 20.52218055725098 14.95581340789795 C 20.27693176269531 15.20106315612793 20.27693176269531 15.59872341156006 20.52218055725098 15.84397315979004 C 20.64483070373535 15.96662330627441 20.80555152893066 16.02792358398438 20.96626091003418 16.02792358398438 C 21.12698173522949 16.02792358398438 21.28769111633301 15.96656322479248 21.41034126281738 15.84397315979004 L 22.6550407409668 14.59934329986572 C 24.31674003601074 16.64791297912598 26.43471145629883 19.42355346679688 28.12857055664063 22.18720245361328 C 28.26930999755859 22.41687393188477 28.40384101867676 22.64196395874023 28.53409004211426 22.8639030456543 L 27.01953125 24.37846374511719 C 26.77429008483887 24.62371253967285 26.77429008483887 25.0213737487793 27.01953125 25.26668357849121 C 27.14219093322754 25.38934326171875 27.30290031433105 25.45063400268555 27.46362113952637 25.45063400268555 C 27.62433052062988 25.45063400268555 27.78504180908203 25.38934326171875 27.90770149230957 25.26668357849121 L 29.17362022399902 24.00076293945313 C 30.91282081604004 27.24215316772461 31.36004066467285 29.49804306030273 30.42164039611816 30.43651390075684 C 30.10267639160156 30.75546646118164 29.62920188903809 30.91241836547852 29.01580429077148 30.91243362426758 C 29.01554298400879 30.91243362426758 29.0153636932373 30.91243362426758 29.01510047912598 30.91243362426758 C 27.27157020568848 30.9122428894043 24.39920997619629 29.64487266540527 20.74564170837402 27.23324394226074 L 22.06412124633789 25.91475296020508 C 22.30937004089355 25.66950416564941 22.30937004089355 25.2718334197998 22.06412124633789 25.02652359008789 C 21.94153022766113 24.90393257141113 21.78082084655762 24.84261512756348 21.62010192871094 24.84261512756348 C 21.45938110351563 24.84261512756348 21.29865074157715 24.90390396118164 21.17590141296387 25.02652359008789 L 19.68552017211914 26.51690292358398 C 15.19065093994141 23.4094123840332 10.95289134979248 19.6439323425293 9.665050506591797 18.35609245300293 C 9.628940582275391 18.31998252868652 9.593581199645996 18.28380393981934 9.558341026306152 18.24757385253906 L 11.35709095001221 16.44876289367676 C 11.60233116149902 16.20351409912109 11.60233116149902 15.80585289001465 11.35709095001221 15.56060314178467 C 11.23443603515625 15.43797779083252 11.07372379302979 15.37666606903076 10.91300201416016 15.37666606903076 C 10.75228118896484 15.37666606903076 10.59155082702637 15.43797779083252 10.4688606262207 15.56060314178467 L 8.73845100402832 17.2911434173584 C 7.940980911254883 16.21652412414551 7.539101123809814 15.12223339080811 7.541181087493896 14.02538299560547 C 7.543941020965576 12.56477355957031 8.262660980224609 11.10686302185059 9.677360534667969 9.69222354888916 C 11.10224914550781 8.267374992370605 12.55184173583984 7.55258846282959 14.00778007507324 7.55258846282959 C 14.74997043609619 7.55258846282959 15.49357604980469 7.738175868988037 16.23688125610352 8.110093116760254 C 16.32705688476563 8.15518856048584 16.42295265197754 8.176567077636719 16.51736259460449 8.176567077636719 C 16.74770736694336 8.176567077636719 16.96946144104004 8.049437522888184 17.07957077026367 7.829423427581787 C 17.23476028442383 7.519243240356445 17.10915184020996 7.141983032226563 16.79891014099121 6.986793041229248 C 15.88495445251465 6.529502868652344 14.95527935028076 6.30109691619873 14.02231311798096 6.30109691619873 C 13.95523262023926 6.30109691619873 13.88828277587891 6.302274227142334 13.82117080688477 6.304633140563965 C 13.69738101959229 4.742843151092529 13.35837078094482 3.306293249130249 12.84885120391846 2.207733154296875 C 12.19300079345703 0.7937232255935669 11.28122138977051 0.01503325533121824 10.28146076202393 0.01497325487434864 C 9.06057071685791 0.01497325487434864 7.987831115722656 1.183353304862976 7.334620952606201 3.182123184204102 C 6.339530467987061 2.677182674407959 5.425956726074219 2.421094179153442 4.658808708190918 2.421094179153442 C 3.98041844367981 2.421094179153442 3.416583299636841 2.621175527572632 3.011380910873413 3.026373147964478 C 2.148090839385986 3.889723300933838 2.215790987014771 5.474433422088623 3.167200803756714 7.34954309463501 C 1.168240904808044 8.002703666687012 4.09155290981289e-05 9.075373649597168 0.0001009155239444226 10.2963228225708 C 0.0001009155239444226 11.29496288299561 0.777290940284729 12.2060432434082 2.188540935516357 12.86170291900635 C 3.287210941314697 13.37217330932617 4.72528076171875 13.71187305450439 6.288761138916016 13.83590316772461 C 6.28662109375 13.89820289611816 6.285300731658936 13.96057319641113 6.285181045532227 14.02299308776855 C 6.281721115112305 15.83078289031982 7.120080947875977 17.58750343322754 8.776890754699707 19.24438285827637 C 10.19259071350098 20.66008377075195 14.66486072540283 24.63369369506836 19.45265007019043 27.87992286682129 C 22.06325149536133 29.65002250671387 24.31430053710938 30.88869285583496 26.14337158203125 31.56156349182129 C 27.2403507232666 31.96513366699219 28.19973182678223 32.16680145263672 29.01718139648438 32.16680145263672 M 4.672516345977783 3.67050313949585 C 5.302946090698242 3.67050313949585 6.231921195983887 3.950342178344727 7.396720886230469 4.652663230895996 C 7.495951175689697 4.71248722076416 7.60828161239624 4.742883682250977 7.72110652923584 4.742883682250977 C 7.802515506744385 4.742883682250977 7.884177684783936 4.727062225341797 7.961380958557129 4.695053100585938 C 8.145590782165527 4.618683338165283 8.282680511474609 4.459413051605225 8.330671310424805 4.265853404998779 C 8.843140602111816 2.197003364562988 9.679671287536621 1.270973205566406 10.28152084350586 1.270973205566406 C 11.21898078918457 1.270973205566406 12.34466075897217 3.387933254241943 12.57483100891113 6.484873294830322 C 11.27060127258301 6.816793441772461 9.997651100158691 7.595543384552002 8.789191246032715 8.804003715515137 C 7.573580741882324 10.01962280273438 6.796950817108154 11.28786373138428 6.467360973358154 12.58939361572266 C 3.372370958328247 12.35884284973145 1.256160974502563 11.23272323608398 1.256160974502563 10.29633331298828 C 1.256160974502563 9.694553375244141 2.182120800018311 8.858013153076172 4.251040935516357 8.34548282623291 C 4.444670677185059 8.297492980957031 4.603930950164795 8.160463333129883 4.680300712585449 7.976193428039551 C 4.756610870361328 7.791933059692383 4.740840911865234 7.582353115081787 4.637850761413574 7.411593437194824 C 3.53735089302063 5.586353302001953 3.474110841751099 4.340023040771484 3.899600982666016 3.914473295211792 C 4.053571701049805 3.760502338409424 4.315096378326416 3.67050313949585 4.672516345977783 3.67050313949585 M 29.01718139648438 36.16680145263672 C 27.71102142333984 36.16680145263672 26.31924057006836 35.88836288452148 24.76230049133301 35.31558227539063 C 22.62875175476074 34.53070449829102 20.0870418548584 33.14286422729492 17.20783996582031 31.19064331054688 C 12.36235046386719 27.90528297424316 7.730091094970703 23.85443305969238 5.948461055755615 22.07281303405762 C 4.801580905914307 20.92588233947754 3.910000801086426 19.69457244873047 3.298430919647217 18.41303253173828 C 3.12525749206543 18.05015182495117 2.974042892456055 17.68292236328125 2.845010042190552 17.31222534179688 C 1.999898076057434 17.09482765197754 1.212391018867493 16.8188362121582 0.5030809044837952 16.48927307128906 C -0.7242990732192993 15.91903305053711 -1.727329134941101 15.1836633682251 -2.478059053421021 14.30362319946289 C -3.473649024963379 13.1365327835083 -3.99989914894104 11.75083351135254 -3.99989914894104 10.2963228225708 C -3.999979019165039 8.581623077392578 -3.249089002609253 6.940963268280029 -1.885539054870605 5.676753044128418 C -1.780548214912415 5.57941198348999 -1.672051906585693 5.484268188476563 -1.5600745677948 5.391330242156982 C -1.573513865470886 5.246610164642334 -1.582953333854675 5.102672100067139 -1.588359117507935 4.959773063659668 C -1.658659100532532 3.101693153381348 -1.029629111289978 1.410613298416138 0.1828509122133255 0.1980432569980621 C 1.328770875930786 -0.9478767514228821 2.918330907821655 -1.578906774520874 4.658811092376709 -1.578906774520874 C 4.895492076873779 -1.578906774520874 5.134870052337646 -1.56766402721405 5.376613140106201 -1.54524564743042 C 5.469496250152588 -1.657150626182556 5.564589977264404 -1.765588760375977 5.661870956420898 -1.870516777038574 C 6.926070690155029 -3.234076738357544 8.566671371459961 -3.985026836395264 10.28146076202393 -3.985026836395264 C 11.73754119873047 -3.984936714172363 13.12424087524414 -3.457776784896851 14.29189109802246 -2.460516691207886 C 15.17211055755615 -1.708756804466248 15.90746116638184 -0.7043967247009277 16.47753143310547 0.5246732831001282 C 16.80610656738281 1.23310375213623 17.08128929138184 2.019263982772827 17.29812240600586 2.862800359725952 C 17.73320579528809 3.014590978622437 18.1637020111084 3.196914196014404 18.58873176574707 3.409573316574097 C 19.69412040710449 3.962513208389282 20.51820182800293 4.913103103637695 20.90885162353516 6.08608341217041 C 20.97603034973145 6.287808418273926 21.02901840209961 6.492002964019775 21.0678768157959 6.697398662567139 C 22.26167488098145 6.791810035705566 23.37893486022949 7.346679210662842 24.17643165588379 8.252193450927734 C 25.39186096191406 9.63209342956543 29.59253120422363 14.51754283905029 32.60993957519531 19.44057273864746 C 34.14300918579102 21.94193267822266 35.14982986450195 24.07375335693359 35.68795013427734 25.95789337158203 C 36.11061096191406 27.43795394897461 36.24604034423828 28.82123374938965 36.09049987792969 30.06941413879395 C 35.89203262329102 31.66220283508301 35.2170295715332 33.07427215576172 34.13846969604492 34.15297317504883 C 33.21949005126953 35.07185363769531 31.58535003662109 36.16680145263672 29.01718139648438 36.16680145263672 Z M 15.12790966033936 17.9165210723877 C 16.33230400085449 18.95103454589844 17.81946563720703 20.17128562927246 19.4300365447998 21.39126777648926 C 20.09574508666992 21.03268623352051 20.84332656860352 20.84261322021484 21.6201000213623 20.84261322021484 C 21.90658378601074 20.84261322021484 22.18914794921875 20.86847877502441 22.46501922607422 20.9190845489502 C 22.22971534729004 20.5928897857666 21.99430084228516 20.27241516113281 21.76151275634766 19.96027183532715 C 21.50139236450195 20.00507354736328 21.23560333251953 20.02792358398438 20.96626091003418 20.02792358398438 C 19.73007011413574 20.02792358398438 18.56788063049316 19.54652404785156 17.69375038146973 18.67240333557129 C 16.33082389831543 17.30946922302246 15.99727439880371 15.30109214782715 16.69321250915527 13.62222576141357 C 16.42793846130371 13.1623067855835 16.24917984008789 12.6681079864502 16.15535926818848 12.16215991973877 C 15.5631685256958 12.11510467529297 14.97918128967285 11.95343685150146 14.44771099090576 11.68764305114746 C 14.32420063018799 11.6258430480957 14.14830112457275 11.55259323120117 14.00778102874756 11.55259323120117 C 13.84324550628662 11.55259323120117 13.54710102081299 11.66575622558594 13.15560054779053 11.95390129089355 C 13.52867031097412 12.1611499786377 13.87503910064697 12.42177581787109 14.18517112731934 12.73183345794678 C 15.58479309082031 14.13150978088379 15.89895057678223 16.21158790588379 15.12790966033936 17.9165210723877 Z" stroke="none" fill="#fff"/>
    </g>
    <g id="Tracé_17" data-name="Tracé 17" transform="translate(-215.369 -214.083)">
      <path d="M 230.4292907714844 231.8879089355469 C 230.1279449462891 231.8879089355469 229.8446655273438 231.7705535888672 229.6316223144531 231.5574645996094 C 229.1918640136719 231.1175842285156 229.1918792724609 230.4019470214844 229.6316528320313 229.9621887207031 L 231.3191833496094 228.274658203125 C 231.5322875976563 228.0615844726563 231.8155364990234 227.9442749023438 232.1167907714844 227.9442749023438 C 232.4180297851563 227.9442749023438 232.7012939453125 228.0615844726563 232.9143676757813 228.2745819091797 C 233.3542327880859 228.7145843505859 233.3542175292969 229.4302215576172 232.9144287109375 229.8699798583984 L 231.2268981933594 231.5575103759766 C 231.0138854980469 231.7705535888672 230.7306060791016 231.8879089355469 230.4292907714844 231.8879089355469 Z" stroke="none"/>
      <path d="M 232.1167907714844 228.4442749023438 C 231.9560852050781 228.4442749023438 231.7953796386719 228.5055847167969 231.6727294921875 228.6282043457031 L 229.9851989746094 230.3157348632813 C 229.7399597167969 230.5609741210938 229.7399597167969 230.9586334228516 229.9851989746094 231.2039489746094 C 230.1078491210938 231.3266143798828 230.2685852050781 231.3879089355469 230.4292907714844 231.3879089355469 C 230.5899963378906 231.3879089355469 230.7507019042969 231.3266143798828 230.8733520507813 231.2039489746094 L 232.5608825683594 229.5164337158203 C 232.8061218261719 229.2711944580078 232.8061218261719 228.8735198974609 232.5608825683594 228.6282043457031 C 232.4382171630859 228.5055847167969 232.2774963378906 228.4442749023438 232.1167907714844 228.4442749023438 M 232.1167907714844 227.4442749023438 C 232.5515441894531 227.4442749023438 232.9603271484375 227.6135711669922 233.2678375244141 227.9209594726563 C 233.9027252197266 228.5560150146484 233.9026794433594 229.5888519287109 233.2679901123047 230.2235412597656 L 231.5804443359375 231.9110565185547 C 231.2730255126953 232.2185363769531 230.8641815185547 232.3879089355469 230.4292907714844 232.3879089355469 C 229.994384765625 232.3879089355469 229.5855255126953 232.2185363769531 229.2780456542969 231.9109954833984 C 228.6433563232422 231.2761383056641 228.6434020996094 230.2433166503906 229.2780914306641 229.6086273193359 L 230.9656219482422 227.9210968017578 C 231.2732086181641 227.6135864257813 231.6820068359375 227.4442749023438 232.1167907714844 227.4442749023438 Z" stroke="none" fill="#fff"/>
    </g>
    <g id="Tracé_18" data-name="Tracé 18" transform="translate(-306.402 -269.437)">
      <path d="M 327.5622863769531 290.899169921875 C 327.260986328125 290.899169921875 326.9776916503906 290.7818298339844 326.7646484375 290.5687561035156 C 326.3249206542969 290.1288452148438 326.324951171875 289.4132385253906 326.7645874023438 288.9734802246094 L 328.4008178710938 287.3372802734375 C 328.6138916015625 287.1242065429688 328.8971862792969 287.0068664550781 329.1984558105469 287.0068664550781 C 329.4997253417969 287.0068664550781 329.7829895019531 287.1242065429688 329.99609375 287.3372192382813 C 330.4359436035156 287.7770690917969 330.4359436035156 288.4927062988281 329.9961547851563 288.9325561523438 L 328.3600158691406 290.5687561035156 C 328.1469421386719 290.7818298339844 327.8636169433594 290.899169921875 327.5622863769531 290.899169921875 Z" stroke="none"/>
      <path d="M 327.5622863769531 290.399169921875 C 327.7229919433594 290.399169921875 327.8837890625 290.3378601074219 328.0064392089844 290.2152099609375 L 329.642578125 288.5790100097656 C 329.8878173828125 288.333740234375 329.8878173828125 287.9360656738281 329.642578125 287.6908264160156 C 329.5199279785156 287.5682067871094 329.3591918945313 287.5068664550781 329.1984558105469 287.5068664550781 C 329.0377197265625 287.5068664550781 328.8770141601563 287.5681762695313 328.7543640136719 287.6908264160156 L 327.1181945800781 289.3269958496094 C 326.8729858398438 289.572265625 326.8729858398438 289.9698791503906 327.1181945800781 290.2152099609375 C 327.2408447265625 290.3378601074219 327.4015502929688 290.399169921875 327.5622863769531 290.399169921875 M 327.5622863769531 291.399169921875 C 327.1274108886719 291.399169921875 326.7185974121094 291.2298278808594 326.4110717773438 290.9223327636719 C 325.7764587402344 290.2873840332031 325.7764892578125 289.254638671875 326.4110107421875 288.6199645996094 L 328.0472412109375 286.9837036132813 C 328.3548278808594 286.6762084960938 328.7636413574219 286.5068664550781 329.1984558105469 286.5068664550781 C 329.6332702636719 286.5068664550781 330.0420837402344 286.6762084960938 330.349609375 286.983642578125 C 330.9844360351563 287.6184387207031 330.9844360351563 288.6512756347656 330.3497314453125 289.2860717773438 L 328.7135620117188 290.9223022460938 C 328.4060363769531 291.2298278808594 327.9971923828125 291.399169921875 327.5622863769531 291.399169921875 Z" stroke="none" fill="#fff"/>
    </g>
    <path id="Tracé_19" data-name="Tracé 19" d="M289.738,138.092a.628.628,0,1,0,0-1.256h0a.628.628,0,0,0,0,1.256Z" transform="translate(-270.953 -128.228)"/>
  </g>
</svg>
