<svg xmlns="http://www.w3.org/2000/svg" width="21.724" height="21.469" viewBox="0 0 21.724 21.469">
  <g id="edit" transform="translate(0.5 -0.111)">
    <path id="Tracé_57" data-name="Tracé 57" d="M19.312,50.209a.521.521,0,0,0-.521.521v4.627a1.565,1.565,0,0,1-1.563,1.563H2.606a1.565,1.565,0,0,1-1.563-1.563V41.778a1.565,1.565,0,0,1,1.563-1.563H7.232a.521.521,0,0,0,0-1.042H2.606A2.608,2.608,0,0,0,0,41.778v13.58a2.608,2.608,0,0,0,2.606,2.606H17.227a2.608,2.608,0,0,0,2.606-2.606V50.73A.521.521,0,0,0,19.312,50.209Zm0,0" transform="translate(0 -36.884)" fill="#707070" stroke="#707070" stroke-width="1"/>
    <path id="Tracé_58" data-name="Tracé 58" d="M122.179.948a2.345,2.345,0,0,0-3.316,0l-9.3,9.3a.521.521,0,0,0-.134.229l-1.223,4.414a.521.521,0,0,0,.641.641l4.414-1.223a.521.521,0,0,0,.229-.134l9.3-9.3a2.348,2.348,0,0,0,0-3.316ZM110.7,10.583l7.609-7.609,2.454,2.454-7.609,7.609Zm-.49.984,1.96,1.961-2.712.751Zm11.843-7.428-.553.553-2.454-2.454.553-.553a1.3,1.3,0,0,1,1.842,0l.612.611A1.3,1.3,0,0,1,122.053,4.139Zm0,0" transform="translate(-102.552)" fill="#707070" stroke="#707070" stroke-width="0.3"/>
  </g>
</svg>
