<svg xmlns="http://www.w3.org/2000/svg" width="47.303" height="25.726" viewBox="0 0 47.303 25.726">
  <g id="Groupe_48" data-name="Groupe 48" transform="translate(-907 -463.073)">
    <g id="Ellipse_7" data-name="Ellipse 7" transform="translate(909 467)" fill="none" stroke="#707070" stroke-width="2">
      <circle cx="9.5" cy="9.5" r="9.5" stroke="none"/>
      <circle cx="9.5" cy="9.5" r="10.5" fill="none"/>
    </g>
    <g id="Groupe_46" data-name="Groupe 46" transform="translate(912.004 470.23)">
      <line id="Ligne_3" data-name="Ligne 3" y2="12.416" transform="translate(6.208)" fill="none" stroke="#707070" stroke-width="2"/>
      <line id="Ligne_4" data-name="Ligne 4" y2="12.416" transform="translate(12.416 6.208) rotate(90)" fill="none" stroke="#707070" stroke-width="2"/>
    </g>
    <g id="Groupe_47" data-name="Groupe 47" transform="translate(376.104 -33.749)">
      <path id="Tracé_20" data-name="Tracé 20" d="M23,255.906c-.037-.585-.113-1.224-.224-1.9a16.043,16.043,0,0,0-.429-1.909,9.864,9.864,0,0,0-.722-1.78,6.684,6.684,0,0,0-1.088-1.542,4.763,4.763,0,0,0-1.563-1.068,5.021,5.021,0,0,0-2-.393,1.939,1.939,0,0,0-1.082.5c-.324.23-.7.5-1.127.79a6.209,6.209,0,0,1-1.458.7,5.232,5.232,0,0,1-3.567,0,6.2,6.2,0,0,1-1.457-.7c-.419-.291-.8-.557-1.128-.79a1.937,1.937,0,0,0-1.081-.5,5.015,5.015,0,0,0-2,.393,4.76,4.76,0,0,0-1.564,1.068,6.683,6.683,0,0,0-1.088,1.542,9.885,9.885,0,0,0-.722,1.78,16.084,16.084,0,0,0-.429,1.908c-.111.673-.187,1.312-.224,1.9S0,257.078,0,257.681a5.225,5.225,0,0,0,1.363,3.774,4.685,4.685,0,0,0,3.512,1.393H18.182a4.684,4.684,0,0,0,3.512-1.393,5.223,5.223,0,0,0,1.363-3.774c0-.605-.019-1.2-.056-1.775Zm0,0" transform="translate(555.142 259.7)" fill="#fff"/>
      <path id="Tracé_8" data-name="Tracé 8" d="M92.938,11.812a5.714,5.714,0,0,0,4.176-1.73,5.714,5.714,0,0,0,1.73-4.176,5.715,5.715,0,0,0-1.73-4.176,5.9,5.9,0,0,0-8.351,0,5.715,5.715,0,0,0-1.73,4.175,5.714,5.714,0,0,0,1.73,4.176A5.716,5.716,0,0,0,92.938,11.812Zm0,0" transform="translate(473.578 496.822)" fill="#707070"/>
      <path id="Tracé_9" data-name="Tracé 9" d="M20.407,254.327a14.588,14.588,0,0,0-.2-1.549,12.208,12.208,0,0,0-.381-1.558,7.694,7.694,0,0,0-.64-1.453,5.482,5.482,0,0,0-.966-1.258,4.259,4.259,0,0,0-1.387-.872,4.794,4.794,0,0,0-1.771-.32,1.8,1.8,0,0,0-.96.407c-.288.188-.624.4-1,.645a5.73,5.73,0,0,1-1.294.57,5.024,5.024,0,0,1-3.165,0,5.716,5.716,0,0,1-1.293-.57c-.372-.238-.709-.455-1-.645a1.8,1.8,0,0,0-.959-.407,4.788,4.788,0,0,0-1.771.321,4.255,4.255,0,0,0-1.387.872,5.484,5.484,0,0,0-.965,1.258,7.709,7.709,0,0,0-.64,1.453,12.236,12.236,0,0,0-.381,1.558,14.536,14.536,0,0,0-.2,1.55c-.033.469-.049.956-.049,1.448a4.072,4.072,0,0,0,1.209,3.08,4.353,4.353,0,0,0,3.116,1.137H16.132a4.352,4.352,0,0,0,3.116-1.137,4.07,4.07,0,0,0,1.209-3.081c0-.494-.017-.981-.05-1.448Zm0,0" transform="translate(556.442 261.35)" fill="#707070"/>
    </g>
  </g>
</svg>
